{
    "asset" : {
        "generator" : "Khronos glTF Blender I/O v1.1.45",
        "version" : "2.0"
    },
    "scene" : 0,
    "scenes" : [
        {
            "name" : "Scene",
            "nodes" : [
                0,
                1,
                2,
                3,
                4
            ]
        }
    ],
    "nodes" : [
        {
            "mesh" : 0,
            "name" : "Leave"
        },
        {
            "mesh" : 1,
            "name" : "stem"
        },
        {
            "mesh" : 2,
            "name" : "Cylinder.001"
        },
        {
            "mesh" : 3,
            "name" : "Plane.001",
            "translation" : [
                0,
                -5.3942203521728516e-05,
                -0.00477663055062294
            ]
        },
        {
            "mesh" : 4,
            "name" : "Plane.002",
            "translation" : [
                0,
                -5.3942203521728516e-05,
                -0.00477663055062294
            ]
        }
    ],
    "materials" : [
        {
            "doubleSided" : true,
            "emissiveFactor" : [
                0,
                0,
                0
            ],
            "name" : "Material.001",
            "pbrMetallicRoughness" : {
                "baseColorTexture" : {
                    "index" : 0,
                    "texCoord" : 0
                },
                "metallicFactor" : 0,
                "roughnessFactor" : 0.3583333194255829
            }
        }
    ],
    "meshes" : [
        {
            "name" : "Plane",
            "primitives" : [
                {
                    "attributes" : {
                        "POSITION" : 0,
                        "NORMAL" : 1,
                        "TEXCOORD_0" : 2
                    },
                    "indices" : 3,
                    "material" : 0
                }
            ]
        },
        {
            "name" : "Cylinder",
            "primitives" : [
                {
                    "attributes" : {
                        "POSITION" : 4,
                        "NORMAL" : 5,
                        "TEXCOORD_0" : 6
                    },
                    "indices" : 7,
                    "material" : 0
                }
            ]
        },
        {
            "name" : "Cylinder.001",
            "primitives" : [
                {
                    "attributes" : {
                        "POSITION" : 8,
                        "NORMAL" : 9,
                        "TEXCOORD_0" : 10
                    },
                    "indices" : 11,
                    "material" : 0
                }
            ]
        },
        {
            "name" : "Plane.001",
            "primitives" : [
                {
                    "attributes" : {
                        "POSITION" : 12,
                        "NORMAL" : 13,
                        "TEXCOORD_0" : 14
                    },
                    "indices" : 15,
                    "material" : 0
                }
            ]
        },
        {
            "name" : "Plane.002",
            "primitives" : [
                {
                    "attributes" : {
                        "POSITION" : 16,
                        "NORMAL" : 17,
                        "TEXCOORD_0" : 18
                    },
                    "indices" : 19,
                    "material" : 0
                }
            ]
        }
    ],
    "textures" : [
        {
            "source" : 0
        }
    ],
    "images" : [
        {
            "bufferView" : 4,
            "mimeType" : "image/jpeg",
            "name" : "Untitled"
        }
    ],
    "accessors" : [
        {
            "bufferView" : 0,
            "componentType" : 5126,
            "count" : 410,
            "max" : [
                1.1584787368774414,
                0.6888867616653442,
                1.008499026298523
            ],
            "min" : [
                -1.1143978834152222,
                -0.01489957980811596,
                -1.21015465259552
            ],
            "type" : "VEC3"
        },
        {
            "bufferView" : 1,
            "componentType" : 5126,
            "count" : 410,
            "type" : "VEC3"
        },
        {
            "bufferView" : 2,
            "componentType" : 5126,
            "count" : 410,
            "type" : "VEC2"
        },
        {
            "bufferView" : 3,
            "componentType" : 5123,
            "count" : 1980,
            "type" : "SCALAR"
        },
        {
            "bufferView" : 5,
            "componentType" : 5126,
            "count" : 18,
            "max" : [
                0.026101993396878242,
                0.8355134725570679,
                0.0261019766330719
            ],
            "min" : [
                -0.026102036237716675,
                -0.0007118582725524902,
                -0.026102006435394287
            ],
            "type" : "VEC3"
        },
        {
            "bufferView" : 6,
            "componentType" : 5126,
            "count" : 18,
            "type" : "VEC3"
        },
        {
            "bufferView" : 7,
            "componentType" : 5126,
            "count" : 18,
            "type" : "VEC2"
        },
        {
            "bufferView" : 8,
            "componentType" : 5123,
            "count" : 48,
            "type" : "SCALAR"
        },
        {
            "bufferView" : 9,
            "componentType" : 5126,
            "count" : 102,
            "max" : [
                0.07070288062095642,
                0.9062165021896362,
                0.07070282101631165
            ],
            "min" : [
                -0.0707029327750206,
                0.7648106217384338,
                -0.07070299983024597
            ],
            "type" : "VEC3"
        },
        {
            "bufferView" : 10,
            "componentType" : 5126,
            "count" : 102,
            "type" : "VEC3"
        },
        {
            "bufferView" : 11,
            "componentType" : 5126,
            "count" : 102,
            "type" : "VEC2"
        },
        {
            "bufferView" : 12,
            "componentType" : 5123,
            "count" : 336,
            "type" : "SCALAR"
        },
        {
            "bufferView" : 13,
            "componentType" : 5126,
            "count" : 312,
            "max" : [
                0.11491972953081131,
                0.7421879172325134,
                0.11471959203481674
            ],
            "min" : [
                -0.114787757396698,
                -0.00047608144814148545,
                -0.11485446989536285
            ],
            "type" : "VEC3"
        },
        {
            "bufferView" : 14,
            "componentType" : 5126,
            "count" : 312,
            "type" : "VEC3"
        },
        {
            "bufferView" : 15,
            "componentType" : 5126,
            "count" : 312,
            "type" : "VEC2"
        },
        {
            "bufferView" : 16,
            "componentType" : 5123,
            "count" : 1152,
            "type" : "SCALAR"
        },
        {
            "bufferView" : 17,
            "componentType" : 5126,
            "count" : 434,
            "max" : [
                0.1214636042714119,
                0.8030258417129517,
                0.12147051095962524
            ],
            "min" : [
                -0.12146974354982376,
                0.7262550592422485,
                -0.12146744132041931
            ],
            "type" : "VEC3"
        },
        {
            "bufferView" : 18,
            "componentType" : 5126,
            "count" : 434,
            "type" : "VEC3"
        },
        {
            "bufferView" : 19,
            "componentType" : 5126,
            "count" : 434,
            "type" : "VEC2"
        },
        {
            "bufferView" : 20,
            "componentType" : 5123,
            "count" : 1152,
            "type" : "SCALAR"
        }
    ],
    "bufferViews" : [
        {
            "buffer" : 0,
            "byteLength" : 4920,
            "byteOffset" : 0
        },
        {
            "buffer" : 0,
            "byteLength" : 4920,
            "byteOffset" : 4920
        },
        {
            "buffer" : 0,
            "byteLength" : 3280,
            "byteOffset" : 9840
        },
        {
            "buffer" : 0,
            "byteLength" : 3960,
            "byteOffset" : 13120
        },
        {
            "buffer" : 0,
            "byteLength" : 5277,
            "byteOffset" : 17080
        },
        {
            "buffer" : 0,
            "byteLength" : 216,
            "byteOffset" : 22360
        },
        {
            "buffer" : 0,
            "byteLength" : 216,
            "byteOffset" : 22576
        },
        {
            "buffer" : 0,
            "byteLength" : 144,
            "byteOffset" : 22792
        },
        {
            "buffer" : 0,
            "byteLength" : 96,
            "byteOffset" : 22936
        },
        {
            "buffer" : 0,
            "byteLength" : 1224,
            "byteOffset" : 23032
        },
        {
            "buffer" : 0,
            "byteLength" : 1224,
            "byteOffset" : 24256
        },
        {
            "buffer" : 0,
            "byteLength" : 816,
            "byteOffset" : 25480
        },
        {
            "buffer" : 0,
            "byteLength" : 672,
            "byteOffset" : 26296
        },
        {
            "buffer" : 0,
            "byteLength" : 3744,
            "byteOffset" : 26968
        },
        {
            "buffer" : 0,
            "byteLength" : 3744,
            "byteOffset" : 30712
        },
        {
            "buffer" : 0,
            "byteLength" : 2496,
            "byteOffset" : 34456
        },
        {
            "buffer" : 0,
            "byteLength" : 2304,
            "byteOffset" : 36952
        },
        {
            "buffer" : 0,
            "byteLength" : 5208,
            "byteOffset" : 39256
        },
        {
            "buffer" : 0,
            "byteLength" : 5208,
            "byteOffset" : 44464
        },
        {
            "buffer" : 0,
            "byteLength" : 3472,
            "byteOffset" : 49672
        },
        {
            "buffer" : 0,
            "byteLength" : 2304,
            "byteOffset" : 53144
        }
    ],
    "buffers" : [
        {
            "byteLength" : 55448,
            "uri" : "data:application/octet-stream;base64,"
        }
    ]
}
