{
    "asset" : {
        "generator" : "Khronos glTF Blender I/O v1.1.45",
        "version" : "2.0"
    },
    "scene" : 0,
    "scenes" : [
        {
            "name" : "Scene",
            "nodes" : [
                0,
                1,
                2
            ]
        }
    ],
    "nodes" : [
        {
            "name" : "Light",
            "rotation" : [
                0.16907575726509094,
                0.7558803558349609,
                -0.27217137813568115,
                0.570947527885437
            ],
            "translation" : [
                4.076245307922363,
                5.903861999511719,
                -1.0054539442062378
            ]
        },
        {
            "name" : "Camera",
            "rotation" : [
                0.6988632082939148,
                0.007067920174449682,
                -0.006904399022459984,
                0.7151870727539062
            ],
            "translation" : [
                0.07584910839796066,
                0.25171414017677307,
                4.7036638259887695
            ]
        },
        {
            "mesh" : 0,
            "name" : "Kaurilan Sauna"
        }
    ],
    "materials" : [
        {
            "doubleSided" : true,
            "emissiveFactor" : [
                0,
                0,
                0
            ],
            "name" : "Text color",
            "pbrMetallicRoughness" : {
                "baseColorFactor" : [
                    0.8185370564460754,
                    0.8185370564460754,
                    0.8185370564460754,
                    1
                ],
                "metallicFactor" : 0,
                "roughnessFactor" : 0.3552631735801697
            }
        }
    ],
    "meshes" : [
        {
            "name" : "Text",
            "primitives" : [
                {
                    "attributes" : {
                        "POSITION" : 0,
                        "NORMAL" : 1,
                        "TEXCOORD_0" : 2
                    },
                    "indices" : 3,
                    "material" : 0
                }
            ]
        }
    ],
    "accessors" : [
        {
            "bufferView" : 0,
            "componentType" : 5126,
            "count" : 1925,
            "max" : [
                0.9876796007156372,
                0.244900181889534,
                0.04961289465427399
            ],
            "min" : [
                -1.0829495191574097,
                -0.0035930939484387636,
                -0.04961288720369339
            ],
            "type" : "VEC3"
        },
        {
            "bufferView" : 1,
            "componentType" : 5126,
            "count" : 1925,
            "type" : "VEC3"
        },
        {
            "bufferView" : 2,
            "componentType" : 5126,
            "count" : 1925,
            "type" : "VEC2"
        },
        {
            "bufferView" : 3,
            "componentType" : 5123,
            "count" : 5547,
            "type" : "SCALAR"
        }
    ],
    "bufferViews" : [
        {
            "buffer" : 0,
            "byteLength" : 23100,
            "byteOffset" : 0
        },
        {
            "buffer" : 0,
            "byteLength" : 23100,
            "byteOffset" : 23100
        },
        {
            "buffer" : 0,
            "byteLength" : 15400,
            "byteOffset" : 46200
        },
        {
            "buffer" : 0,
            "byteLength" : 11094,
            "byteOffset" : 61600
        }
    ],
    "buffers" : [
        {
            "byteLength" : 72696,
            "uri" : "data:application/octet-stream;base64,"
        }
    ]
}
