{
    "asset" : {
        "generator" : "Khronos glTF Blender I/O v1.1.46",
        "version" : "2.0"
    },
    "scene" : 0,
    "scenes" : [
        {
            "name" : "Scene",
            "nodes" : [
                9
            ]
        }
    ],
    "nodes" : [
        {
            "name" : "Bone.001",
            "rotation" : [
                -0.1432192325592041,
                0.15626394748687744,
                -0.5934181213378906,
                0.776482343673706
            ],
            "scale" : [
                0.009999999776482582,
                0.009999998845160007,
                0.009999999776482582
            ],
            "translation" : [
                -0.009069439955055714,
                1.1162819862365723,
                0.020612165331840515
            ]
        },
        {
            "name" : "Bone.002",
            "rotation" : [
                -0.22232015430927277,
                -0.12745895981788635,
                0.4604957103729248,
                0.8498656749725342
            ],
            "scale" : [
                0.009999999776482582,
                0.010000000707805157,
                0.009999999776482582
            ],
            "translation" : [
                -0.01706596277654171,
                1.1149566173553467,
                0.01950153335928917
            ]
        },
        {
            "name" : "Bone.003",
            "rotation" : [
                0.38601046800613403,
                -0.16511167585849762,
                -0.20788723230361938,
                0.883468747138977
            ],
            "scale" : [
                0.010000000707805157,
                0.009999999776482582,
                0.009999998845160007
            ],
            "translation" : [
                -0.019446980208158493,
                1.1130738258361816,
                0.03753955662250519
            ]
        },
        {
            "name" : "Bone.004",
            "rotation" : [
                -0.44827622175216675,
                -0.2506176829338074,
                0.01781833916902542,
                0.8578588366508484
            ],
            "scale" : [
                0.009999999776482582,
                0.009999999776482582,
                0.010000000707805157
            ],
            "translation" : [
                0.005954633466899395,
                1.3108311891555786,
                0.0077775632962584496
            ]
        },
        {
            "name" : "Bone.005",
            "rotation" : [
                0.37527215480804443,
                0.26764580607414246,
                0.17285111546516418,
                0.8704361319541931
            ],
            "scale" : [
                0.009999999776482582,
                0.009999999776482582,
                0.009999998845160007
            ],
            "translation" : [
                0.006167098414152861,
                1.3026118278503418,
                0.0155101353302598
            ]
        },
        {
            "name" : "Bone.006",
            "rotation" : [
                -0.24778984487056732,
                -0.6774775981903076,
                0.18786759674549103,
                0.6665809154510498
            ],
            "scale" : [
                0.009999997913837433,
                0.009999999776482582,
                0.010000000707805157
            ],
            "translation" : [
                0.03972220420837402,
                1.4817880392074585,
                0.004052142612636089
            ]
        },
        {
            "name" : "Bone.007",
            "rotation" : [
                -0.03584905341267586,
                -0.6320070624351501,
                -0.43532395362854004,
                0.64013671875
            ],
            "scale" : [
                0.009999999776482582,
                0.009999999776482582,
                0.010000000707805157
            ],
            "translation" : [
                0.052545323967933655,
                1.482236385345459,
                0.010863030329346657
            ]
        },
        {
            "children" : [
                0,
                1,
                2,
                3,
                4,
                5,
                6
            ],
            "name" : "Bone",
            "rotation" : [
                -0.009229469113051891,
                -0.00045380444498732686,
                -0.0044827815145254135,
                0.9999473690986633
            ],
            "scale" : [
                0.009999999776482582,
                0.009999998845160007,
                0.009999998845160007
            ]
        },
        {
            "mesh" : 0,
            "name" : "tree",
            "skin" : 0
        },
        {
            "children" : [
                8,
                7
            ],
            "name" : "Armature"
        }
    ],
    "animations" : [
        {
            "channels" : [
                {
                    "sampler" : 0,
                    "target" : {
                        "node" : 7,
                        "path" : "translation"
                    }
                },
                {
                    "sampler" : 1,
                    "target" : {
                        "node" : 7,
                        "path" : "rotation"
                    }
                },
                {
                    "sampler" : 2,
                    "target" : {
                        "node" : 7,
                        "path" : "scale"
                    }
                },
                {
                    "sampler" : 3,
                    "target" : {
                        "node" : 0,
                        "path" : "translation"
                    }
                },
                {
                    "sampler" : 4,
                    "target" : {
                        "node" : 0,
                        "path" : "rotation"
                    }
                },
                {
                    "sampler" : 5,
                    "target" : {
                        "node" : 0,
                        "path" : "scale"
                    }
                },
                {
                    "sampler" : 6,
                    "target" : {
                        "node" : 1,
                        "path" : "translation"
                    }
                },
                {
                    "sampler" : 7,
                    "target" : {
                        "node" : 1,
                        "path" : "rotation"
                    }
                },
                {
                    "sampler" : 8,
                    "target" : {
                        "node" : 1,
                        "path" : "scale"
                    }
                },
                {
                    "sampler" : 9,
                    "target" : {
                        "node" : 2,
                        "path" : "translation"
                    }
                },
                {
                    "sampler" : 10,
                    "target" : {
                        "node" : 2,
                        "path" : "rotation"
                    }
                },
                {
                    "sampler" : 11,
                    "target" : {
                        "node" : 2,
                        "path" : "scale"
                    }
                },
                {
                    "sampler" : 12,
                    "target" : {
                        "node" : 3,
                        "path" : "translation"
                    }
                },
                {
                    "sampler" : 13,
                    "target" : {
                        "node" : 3,
                        "path" : "rotation"
                    }
                },
                {
                    "sampler" : 14,
                    "target" : {
                        "node" : 3,
                        "path" : "scale"
                    }
                },
                {
                    "sampler" : 15,
                    "target" : {
                        "node" : 4,
                        "path" : "translation"
                    }
                },
                {
                    "sampler" : 16,
                    "target" : {
                        "node" : 4,
                        "path" : "rotation"
                    }
                },
                {
                    "sampler" : 17,
                    "target" : {
                        "node" : 4,
                        "path" : "scale"
                    }
                },
                {
                    "sampler" : 18,
                    "target" : {
                        "node" : 5,
                        "path" : "translation"
                    }
                },
                {
                    "sampler" : 19,
                    "target" : {
                        "node" : 5,
                        "path" : "rotation"
                    }
                },
                {
                    "sampler" : 20,
                    "target" : {
                        "node" : 5,
                        "path" : "scale"
                    }
                },
                {
                    "sampler" : 21,
                    "target" : {
                        "node" : 6,
                        "path" : "translation"
                    }
                },
                {
                    "sampler" : 22,
                    "target" : {
                        "node" : 6,
                        "path" : "rotation"
                    }
                },
                {
                    "sampler" : 23,
                    "target" : {
                        "node" : 6,
                        "path" : "scale"
                    }
                }
            ],
            "name" : "ArmatureAction",
            "samplers" : [
                {
                    "input" : 7,
                    "interpolation" : "LINEAR",
                    "output" : 8
                },
                {
                    "input" : 7,
                    "interpolation" : "LINEAR",
                    "output" : 9
                },
                {
                    "input" : 7,
                    "interpolation" : "LINEAR",
                    "output" : 10
                },
                {
                    "input" : 7,
                    "interpolation" : "LINEAR",
                    "output" : 11
                },
                {
                    "input" : 7,
                    "interpolation" : "LINEAR",
                    "output" : 12
                },
                {
                    "input" : 7,
                    "interpolation" : "LINEAR",
                    "output" : 13
                },
                {
                    "input" : 7,
                    "interpolation" : "LINEAR",
                    "output" : 14
                },
                {
                    "input" : 7,
                    "interpolation" : "LINEAR",
                    "output" : 15
                },
                {
                    "input" : 7,
                    "interpolation" : "LINEAR",
                    "output" : 16
                },
                {
                    "input" : 7,
                    "interpolation" : "LINEAR",
                    "output" : 17
                },
                {
                    "input" : 7,
                    "interpolation" : "LINEAR",
                    "output" : 18
                },
                {
                    "input" : 7,
                    "interpolation" : "LINEAR",
                    "output" : 19
                },
                {
                    "input" : 7,
                    "interpolation" : "LINEAR",
                    "output" : 20
                },
                {
                    "input" : 7,
                    "interpolation" : "LINEAR",
                    "output" : 21
                },
                {
                    "input" : 7,
                    "interpolation" : "LINEAR",
                    "output" : 22
                },
                {
                    "input" : 7,
                    "interpolation" : "LINEAR",
                    "output" : 23
                },
                {
                    "input" : 7,
                    "interpolation" : "LINEAR",
                    "output" : 24
                },
                {
                    "input" : 7,
                    "interpolation" : "LINEAR",
                    "output" : 25
                },
                {
                    "input" : 7,
                    "interpolation" : "LINEAR",
                    "output" : 26
                },
                {
                    "input" : 7,
                    "interpolation" : "LINEAR",
                    "output" : 27
                },
                {
                    "input" : 7,
                    "interpolation" : "LINEAR",
                    "output" : 28
                },
                {
                    "input" : 7,
                    "interpolation" : "LINEAR",
                    "output" : 29
                },
                {
                    "input" : 7,
                    "interpolation" : "LINEAR",
                    "output" : 30
                },
                {
                    "input" : 7,
                    "interpolation" : "LINEAR",
                    "output" : 31
                }
            ]
        }
    ],
    "materials" : [
        {
            "alphaCutoff" : 0.5,
            "alphaMode" : "MASK",
            "doubleSided" : true,
            "emissiveFactor" : [
                0,
                0,
                0
            ],
            "name" : "Material.001",
            "pbrMetallicRoughness" : {
                "baseColorTexture" : {
                    "index" : 0,
                    "texCoord" : 0
                },
                "metallicFactor" : 0,
                "roughnessFactor" : 0.8999999761581421
            }
        }
    ],
    "meshes" : [
        {
            "name" : "tree.002",
            "primitives" : [
                {
                    "attributes" : {
                        "POSITION" : 0,
                        "NORMAL" : 1,
                        "TEXCOORD_0" : 2,
                        "JOINTS_0" : 3,
                        "WEIGHTS_0" : 4
                    },
                    "indices" : 5,
                    "material" : 0
                }
            ]
        }
    ],
    "textures" : [
        {
            "source" : 0
        }
    ],
    "images" : [
        {
            "mimeType" : "image/png",
            "name" : "LeafBaseColor",
            "uri" : "LeafBaseColor.png"
        }
    ],
    "skins" : [
        {
            "inverseBindMatrices" : 6,
            "joints" : [
                7,
                0,
                1,
                2,
                3,
                4,
                5,
                6
            ],
            "name" : "Armature"
        }
    ],
    "accessors" : [
        {
            "bufferView" : 0,
            "componentType" : 5126,
            "count" : 3034,
            "max" : [
                0.5717474818229675,
                1.6557679176330566,
                0.4133871793746948
            ],
            "min" : [
                -0.4493412971496582,
                0,
                -0.47514045238494873
            ],
            "type" : "VEC3"
        },
        {
            "bufferView" : 1,
            "componentType" : 5126,
            "count" : 3034,
            "type" : "VEC3"
        },
        {
            "bufferView" : 2,
            "componentType" : 5126,
            "count" : 3034,
            "type" : "VEC2"
        },
        {
            "bufferView" : 3,
            "componentType" : 5123,
            "count" : 3034,
            "type" : "VEC4"
        },
        {
            "bufferView" : 4,
            "componentType" : 5126,
            "count" : 3034,
            "type" : "VEC4"
        },
        {
            "bufferView" : 5,
            "componentType" : 5123,
            "count" : 8886,
            "type" : "SCALAR"
        },
        {
            "bufferView" : 6,
            "componentType" : 5126,
            "count" : 8,
            "type" : "MAT4"
        },
        {
            "bufferView" : 7,
            "componentType" : 5126,
            "count" : 120,
            "max" : [
                5
            ],
            "min" : [
                0.041666666666666664
            ],
            "type" : "SCALAR"
        },
        {
            "bufferView" : 8,
            "componentType" : 5126,
            "count" : 120,
            "type" : "VEC3"
        },
        {
            "bufferView" : 9,
            "componentType" : 5126,
            "count" : 120,
            "type" : "VEC4"
        },
        {
            "bufferView" : 10,
            "componentType" : 5126,
            "count" : 120,
            "type" : "VEC3"
        },
        {
            "bufferView" : 11,
            "componentType" : 5126,
            "count" : 120,
            "type" : "VEC3"
        },
        {
            "bufferView" : 12,
            "componentType" : 5126,
            "count" : 120,
            "type" : "VEC4"
        },
        {
            "bufferView" : 13,
            "componentType" : 5126,
            "count" : 120,
            "type" : "VEC3"
        },
        {
            "bufferView" : 14,
            "componentType" : 5126,
            "count" : 120,
            "type" : "VEC3"
        },
        {
            "bufferView" : 15,
            "componentType" : 5126,
            "count" : 120,
            "type" : "VEC4"
        },
        {
            "bufferView" : 16,
            "componentType" : 5126,
            "count" : 120,
            "type" : "VEC3"
        },
        {
            "bufferView" : 17,
            "componentType" : 5126,
            "count" : 120,
            "type" : "VEC3"
        },
        {
            "bufferView" : 18,
            "componentType" : 5126,
            "count" : 120,
            "type" : "VEC4"
        },
        {
            "bufferView" : 19,
            "componentType" : 5126,
            "count" : 120,
            "type" : "VEC3"
        },
        {
            "bufferView" : 20,
            "componentType" : 5126,
            "count" : 120,
            "type" : "VEC3"
        },
        {
            "bufferView" : 21,
            "componentType" : 5126,
            "count" : 120,
            "type" : "VEC4"
        },
        {
            "bufferView" : 22,
            "componentType" : 5126,
            "count" : 120,
            "type" : "VEC3"
        },
        {
            "bufferView" : 23,
            "componentType" : 5126,
            "count" : 120,
            "type" : "VEC3"
        },
        {
            "bufferView" : 24,
            "componentType" : 5126,
            "count" : 120,
            "type" : "VEC4"
        },
        {
            "bufferView" : 25,
            "componentType" : 5126,
            "count" : 120,
            "type" : "VEC3"
        },
        {
            "bufferView" : 26,
            "componentType" : 5126,
            "count" : 120,
            "type" : "VEC3"
        },
        {
            "bufferView" : 27,
            "componentType" : 5126,
            "count" : 120,
            "type" : "VEC4"
        },
        {
            "bufferView" : 28,
            "componentType" : 5126,
            "count" : 120,
            "type" : "VEC3"
        },
        {
            "bufferView" : 29,
            "componentType" : 5126,
            "count" : 120,
            "type" : "VEC3"
        },
        {
            "bufferView" : 30,
            "componentType" : 5126,
            "count" : 120,
            "type" : "VEC4"
        },
        {
            "bufferView" : 31,
            "componentType" : 5126,
            "count" : 120,
            "type" : "VEC3"
        }
    ],
    "bufferViews" : [
        {
            "buffer" : 0,
            "byteLength" : 36408,
            "byteOffset" : 0
        },
        {
            "buffer" : 0,
            "byteLength" : 36408,
            "byteOffset" : 36408
        },
        {
            "buffer" : 0,
            "byteLength" : 24272,
            "byteOffset" : 72816
        },
        {
            "buffer" : 0,
            "byteLength" : 24272,
            "byteOffset" : 97088
        },
        {
            "buffer" : 0,
            "byteLength" : 48544,
            "byteOffset" : 121360
        },
        {
            "buffer" : 0,
            "byteLength" : 17772,
            "byteOffset" : 169904
        },
        {
            "buffer" : 0,
            "byteLength" : 512,
            "byteOffset" : 187676
        },
        {
            "buffer" : 0,
            "byteLength" : 480,
            "byteOffset" : 188188
        },
        {
            "buffer" : 0,
            "byteLength" : 1440,
            "byteOffset" : 188668
        },
        {
            "buffer" : 0,
            "byteLength" : 1920,
            "byteOffset" : 190108
        },
        {
            "buffer" : 0,
            "byteLength" : 1440,
            "byteOffset" : 192028
        },
        {
            "buffer" : 0,
            "byteLength" : 1440,
            "byteOffset" : 193468
        },
        {
            "buffer" : 0,
            "byteLength" : 1920,
            "byteOffset" : 194908
        },
        {
            "buffer" : 0,
            "byteLength" : 1440,
            "byteOffset" : 196828
        },
        {
            "buffer" : 0,
            "byteLength" : 1440,
            "byteOffset" : 198268
        },
        {
            "buffer" : 0,
            "byteLength" : 1920,
            "byteOffset" : 199708
        },
        {
            "buffer" : 0,
            "byteLength" : 1440,
            "byteOffset" : 201628
        },
        {
            "buffer" : 0,
            "byteLength" : 1440,
            "byteOffset" : 203068
        },
        {
            "buffer" : 0,
            "byteLength" : 1920,
            "byteOffset" : 204508
        },
        {
            "buffer" : 0,
            "byteLength" : 1440,
            "byteOffset" : 206428
        },
        {
            "buffer" : 0,
            "byteLength" : 1440,
            "byteOffset" : 207868
        },
        {
            "buffer" : 0,
            "byteLength" : 1920,
            "byteOffset" : 209308
        },
        {
            "buffer" : 0,
            "byteLength" : 1440,
            "byteOffset" : 211228
        },
        {
            "buffer" : 0,
            "byteLength" : 1440,
            "byteOffset" : 212668
        },
        {
            "buffer" : 0,
            "byteLength" : 1920,
            "byteOffset" : 214108
        },
        {
            "buffer" : 0,
            "byteLength" : 1440,
            "byteOffset" : 216028
        },
        {
            "buffer" : 0,
            "byteLength" : 1440,
            "byteOffset" : 217468
        },
        {
            "buffer" : 0,
            "byteLength" : 1920,
            "byteOffset" : 218908
        },
        {
            "buffer" : 0,
            "byteLength" : 1440,
            "byteOffset" : 220828
        },
        {
            "buffer" : 0,
            "byteLength" : 1440,
            "byteOffset" : 222268
        },
        {
            "buffer" : 0,
            "byteLength" : 1920,
            "byteOffset" : 223708
        },
        {
            "buffer" : 0,
            "byteLength" : 1440,
            "byteOffset" : 225628
        }
    ],
    "buffers" : [
        {
            "byteLength" : 227068,
            "uri" : "koivu.bin"
        }
    ]
}
