{
    "asset" : {
        "generator" : "Khronos glTF Blender I/O v1.1.45",
        "version" : "2.0"
    },
    "scene" : 0,
    "scenes" : [
        {
            "name" : "Scene",
            "nodes" : [
                0,
                1,
                2,
                3,
                4,
                5
            ]
        }
    ],
    "nodes" : [
        {
            "mesh" : 0,
            "name" : "Cylinder"
        },
        {
            "mesh" : 1,
            "name" : "Plane.001",
            "rotation" : [
                -0.5742402076721191,
                -0.08471185714006424,
                0.11883816868066788,
                0.8055740594863892
            ],
            "scale" : [
                0.6592651605606079,
                0.6592651605606079,
                0.6592652201652527
            ],
            "translation" : [
                0,
                0.2717052698135376,
                0.008593741804361343
            ]
        },
        {
            "mesh" : 2,
            "name" : "Plane.002",
            "rotation" : [
                0.5011328458786011,
                0.4002287983894348,
                0.04074178636074066,
                0.7661741971969604
            ],
            "scale" : [
                0.6592651605606079,
                0.6592651605606079,
                0.6592652201652527
            ],
            "translation" : [
                0.0052998424507677555,
                0.3388366401195526,
                0.017426839098334312
            ]
        },
        {
            "mesh" : 3,
            "name" : "Plane.003",
            "rotation" : [
                -0.1303698718547821,
                0,
                0,
                0.9914654493331909
            ],
            "scale" : [
                0.7924250960350037,
                0.7924250960350037,
                0.7924250960350037
            ],
            "translation" : [
                0.011439178138971329,
                0.6660782098770142,
                -0.02455345168709755
            ]
        },
        {
            "mesh" : 4,
            "name" : "Plane.004",
            "rotation" : [
                -0.4746045768260956,
                0.5214987397193909,
                0.4553528428077698,
                0.5435470342636108
            ],
            "scale" : [
                0.7924250960350037,
                0.7924250960350037,
                0.7924250960350037
            ],
            "translation" : [
                0.0010452251881361008,
                0.6014882326126099,
                -0.019988343119621277
            ]
        },
        {
            "mesh" : 5,
            "name" : "Plane.007",
            "rotation" : [
                0.407252699136734,
                0.39221009612083435,
                -0.19958561658859253,
                0.8003012537956238
            ],
            "scale" : [
                0.7924250960350037,
                0.7924250960350037,
                0.7924250960350037
            ],
            "translation" : [
                0.004805011674761772,
                0.5308465957641602,
                0.003680611029267311
            ]
        }
    ],
    "materials" : [
        {
            "doubleSided" : true,
            "emissiveFactor" : [
                0,
                0,
                0
            ],
            "name" : "Material",
            "pbrMetallicRoughness" : {
                "baseColorTexture" : {
                    "index" : 0,
                    "texCoord" : 0
                },
                "metallicFactor" : 0,
                "roughnessFactor" : 0.5
            }
        }
    ],
    "meshes" : [
        {
            "name" : "Cylinder",
            "primitives" : [
                {
                    "attributes" : {
                        "POSITION" : 0,
                        "NORMAL" : 1,
                        "TEXCOORD_0" : 2
                    },
                    "indices" : 3,
                    "material" : 0
                }
            ]
        },
        {
            "name" : "Plane.007",
            "primitives" : [
                {
                    "attributes" : {
                        "POSITION" : 4,
                        "NORMAL" : 5,
                        "TEXCOORD_0" : 6
                    },
                    "indices" : 7,
                    "material" : 0
                }
            ]
        },
        {
            "name" : "Plane.008",
            "primitives" : [
                {
                    "attributes" : {
                        "POSITION" : 8,
                        "NORMAL" : 9,
                        "TEXCOORD_0" : 10
                    },
                    "indices" : 7,
                    "material" : 0
                }
            ]
        },
        {
            "name" : "Plane.009",
            "primitives" : [
                {
                    "attributes" : {
                        "POSITION" : 11,
                        "NORMAL" : 12,
                        "TEXCOORD_0" : 13
                    },
                    "indices" : 7,
                    "material" : 0
                }
            ]
        },
        {
            "name" : "Plane.010",
            "primitives" : [
                {
                    "attributes" : {
                        "POSITION" : 14,
                        "NORMAL" : 15,
                        "TEXCOORD_0" : 16
                    },
                    "indices" : 7,
                    "material" : 0
                }
            ]
        },
        {
            "name" : "Plane.011",
            "primitives" : [
                {
                    "attributes" : {
                        "POSITION" : 17,
                        "NORMAL" : 18,
                        "TEXCOORD_0" : 19
                    },
                    "indices" : 7,
                    "material" : 0
                }
            ]
        }
    ],
    "textures" : [
        {
            "source" : 0
        }
    ],
    "images" : [
        {
            "bufferView" : 4,
            "mimeType" : "image/jpeg",
            "name" : "Untitled"
        }
    ],
    "accessors" : [
        {
            "bufferView" : 0,
            "componentType" : 5126,
            "count" : 62,
            "max" : [
                0.0074503361247479916,
                0.6775074601173401,
                0.02868211641907692
            ],
            "min" : [
                -0.005826206877827644,
                -0.005940405651926994,
                -0.03215961158275604
            ],
            "type" : "VEC3"
        },
        {
            "bufferView" : 1,
            "componentType" : 5126,
            "count" : 62,
            "type" : "VEC3"
        },
        {
            "bufferView" : 2,
            "componentType" : 5126,
            "count" : 62,
            "type" : "VEC2"
        },
        {
            "bufferView" : 3,
            "componentType" : 5123,
            "count" : 192,
            "type" : "SCALAR"
        },
        {
            "bufferView" : 5,
            "componentType" : 5126,
            "count" : 534,
            "max" : [
                0.0006500651361420751,
                0.30639705061912537,
                0.1138298287987709
            ],
            "min" : [
                -0.01876842975616455,
                -0.0018774985801428556,
                -0.1138298287987709
            ],
            "type" : "VEC3"
        },
        {
            "bufferView" : 6,
            "componentType" : 5126,
            "count" : 534,
            "type" : "VEC3"
        },
        {
            "bufferView" : 7,
            "componentType" : 5126,
            "count" : 534,
            "type" : "VEC2"
        },
        {
            "bufferView" : 8,
            "componentType" : 5123,
            "count" : 3192,
            "type" : "SCALAR"
        },
        {
            "bufferView" : 9,
            "componentType" : 5126,
            "count" : 534,
            "max" : [
                0.0006500651361420751,
                0.30639705061912537,
                0.1138298287987709
            ],
            "min" : [
                -0.01876842975616455,
                -0.0018774985801428556,
                -0.1138298287987709
            ],
            "type" : "VEC3"
        },
        {
            "bufferView" : 10,
            "componentType" : 5126,
            "count" : 534,
            "type" : "VEC3"
        },
        {
            "bufferView" : 11,
            "componentType" : 5126,
            "count" : 534,
            "type" : "VEC2"
        },
        {
            "bufferView" : 12,
            "componentType" : 5126,
            "count" : 534,
            "max" : [
                0.0006500651361420751,
                0.30639705061912537,
                0.1138298287987709
            ],
            "min" : [
                -0.01876842975616455,
                -0.0018774985801428556,
                -0.1138298287987709
            ],
            "type" : "VEC3"
        },
        {
            "bufferView" : 13,
            "componentType" : 5126,
            "count" : 534,
            "type" : "VEC3"
        },
        {
            "bufferView" : 14,
            "componentType" : 5126,
            "count" : 534,
            "type" : "VEC2"
        },
        {
            "bufferView" : 15,
            "componentType" : 5126,
            "count" : 534,
            "max" : [
                0.0006500651361420751,
                0.30639705061912537,
                0.1138298287987709
            ],
            "min" : [
                -0.01876842975616455,
                -0.0018774985801428556,
                -0.1138298287987709
            ],
            "type" : "VEC3"
        },
        {
            "bufferView" : 16,
            "componentType" : 5126,
            "count" : 534,
            "type" : "VEC3"
        },
        {
            "bufferView" : 17,
            "componentType" : 5126,
            "count" : 534,
            "type" : "VEC2"
        },
        {
            "bufferView" : 18,
            "componentType" : 5126,
            "count" : 534,
            "max" : [
                0.0006500651361420751,
                0.30639705061912537,
                0.1138298287987709
            ],
            "min" : [
                -0.01876842975616455,
                -0.0018774985801428556,
                -0.1138298287987709
            ],
            "type" : "VEC3"
        },
        {
            "bufferView" : 19,
            "componentType" : 5126,
            "count" : 534,
            "type" : "VEC3"
        },
        {
            "bufferView" : 20,
            "componentType" : 5126,
            "count" : 534,
            "type" : "VEC2"
        }
    ],
    "bufferViews" : [
        {
            "buffer" : 0,
            "byteLength" : 744,
            "byteOffset" : 0
        },
        {
            "buffer" : 0,
            "byteLength" : 744,
            "byteOffset" : 744
        },
        {
            "buffer" : 0,
            "byteLength" : 496,
            "byteOffset" : 1488
        },
        {
            "buffer" : 0,
            "byteLength" : 384,
            "byteOffset" : 1984
        },
        {
            "buffer" : 0,
            "byteLength" : 16956,
            "byteOffset" : 2368
        },
        {
            "buffer" : 0,
            "byteLength" : 6408,
            "byteOffset" : 19324
        },
        {
            "buffer" : 0,
            "byteLength" : 6408,
            "byteOffset" : 25732
        },
        {
            "buffer" : 0,
            "byteLength" : 4272,
            "byteOffset" : 32140
        },
        {
            "buffer" : 0,
            "byteLength" : 6384,
            "byteOffset" : 36412
        },
        {
            "buffer" : 0,
            "byteLength" : 6408,
            "byteOffset" : 42796
        },
        {
            "buffer" : 0,
            "byteLength" : 6408,
            "byteOffset" : 49204
        },
        {
            "buffer" : 0,
            "byteLength" : 4272,
            "byteOffset" : 55612
        },
        {
            "buffer" : 0,
            "byteLength" : 6408,
            "byteOffset" : 59884
        },
        {
            "buffer" : 0,
            "byteLength" : 6408,
            "byteOffset" : 66292
        },
        {
            "buffer" : 0,
            "byteLength" : 4272,
            "byteOffset" : 72700
        },
        {
            "buffer" : 0,
            "byteLength" : 6408,
            "byteOffset" : 76972
        },
        {
            "buffer" : 0,
            "byteLength" : 6408,
            "byteOffset" : 83380
        },
        {
            "buffer" : 0,
            "byteLength" : 4272,
            "byteOffset" : 89788
        },
        {
            "buffer" : 0,
            "byteLength" : 6408,
            "byteOffset" : 94060
        },
        {
            "buffer" : 0,
            "byteLength" : 6408,
            "byteOffset" : 100468
        },
        {
            "buffer" : 0,
            "byteLength" : 4272,
            "byteOffset" : 106876
        }
    ],
    "buffers" : [
        {
            "byteLength" : 111148,
            "uri" : "data:application/octet-stream;base64,"
        }
    ]
}
