{
    "asset" : {
        "generator" : "Khronos glTF Blender I/O v1.1.46",
        "version" : "2.0"
    },
    "scene" : 0,
    "scenes" : [
        {
            "name" : "Scene",
            "nodes" : [
                7
            ]
        }
    ],
    "nodes" : [
        {
            "name" : "Bone.001",
            "rotation" : [
                0.01873837783932686,
                1.7686876336892206e-14,
                4.4675769750313066e-09,
                0.9998244643211365
            ],
            "scale" : [
                0.009999999776482582,
                0.009999999776482582,
                0.009999999776482582
            ],
            "translation" : [
                -8.881784197001252e-16,
                1.4328553676605225,
                3.725290298461914e-09
            ]
        },
        {
            "name" : "Bone.002",
            "rotation" : [
                -0.4982486069202423,
                0.08053571730852127,
                0.09997618943452835,
                0.8574773073196411
            ],
            "scale" : [
                0.009999999776482582,
                0.010000000707805157,
                0.009999998845160007
            ],
            "translation" : [
                -1.3557739819702874e-08,
                0.5744750499725342,
                0.05686528980731964
            ]
        },
        {
            "name" : "Bone.003",
            "rotation" : [
                0.5564435720443726,
                3.5784578358288854e-05,
                -5.268746099318378e-05,
                0.8308854103088379
            ],
            "scale" : [
                0.009999999776482582,
                0.009999999776482582,
                0.009999999776482582
            ],
            "translation" : [
                -4.7651585191488266e-05,
                0.7259248495101929,
                0.07746817171573639
            ]
        },
        {
            "name" : "Bone.004",
            "rotation" : [
                0.32432934641838074,
                0.10870547592639923,
                -0.3194292187690735,
                0.8837186098098755
            ],
            "scale" : [
                0.009999998845160007,
                0.009999998845160007,
                0.009999999776482582
            ],
            "translation" : [
                0.0029630884528160095,
                1.1312264204025269,
                0.06415334343910217
            ]
        },
        {
            "name" : "Bone.005",
            "rotation" : [
                -0.3070950210094452,
                0.033507879823446274,
                0.5530424118041992,
                0.7737661004066467
            ],
            "scale" : [
                0.010000000707805157,
                0.009999999776482582,
                0.010000001639127731
            ],
            "translation" : [
                -0.002499164314940572,
                1.27528715133667,
                0.03628320246934891
            ]
        },
        {
            "children" : [
                0,
                1,
                2,
                3,
                4
            ],
            "name" : "Bone",
            "rotation" : [
                -0.018738389015197754,
                1.1918833564550368e-07,
                -2.2337884875156533e-09,
                0.9998244643211365
            ],
            "scale" : [
                0.009999999776482582,
                0.009999999776482582,
                0.009999999776482582
            ]
        },
        {
            "mesh" : 0,
            "name" : "Cylinder",
            "skin" : 0
        },
        {
            "children" : [
                6,
                5
            ],
            "name" : "Armature"
        }
    ],
    "animations" : [
        {
            "channels" : [
                {
                    "sampler" : 0,
                    "target" : {
                        "node" : 5,
                        "path" : "translation"
                    }
                },
                {
                    "sampler" : 1,
                    "target" : {
                        "node" : 5,
                        "path" : "rotation"
                    }
                },
                {
                    "sampler" : 2,
                    "target" : {
                        "node" : 5,
                        "path" : "scale"
                    }
                },
                {
                    "sampler" : 3,
                    "target" : {
                        "node" : 0,
                        "path" : "translation"
                    }
                },
                {
                    "sampler" : 4,
                    "target" : {
                        "node" : 0,
                        "path" : "rotation"
                    }
                },
                {
                    "sampler" : 5,
                    "target" : {
                        "node" : 0,
                        "path" : "scale"
                    }
                },
                {
                    "sampler" : 6,
                    "target" : {
                        "node" : 1,
                        "path" : "translation"
                    }
                },
                {
                    "sampler" : 7,
                    "target" : {
                        "node" : 1,
                        "path" : "rotation"
                    }
                },
                {
                    "sampler" : 8,
                    "target" : {
                        "node" : 1,
                        "path" : "scale"
                    }
                },
                {
                    "sampler" : 9,
                    "target" : {
                        "node" : 2,
                        "path" : "translation"
                    }
                },
                {
                    "sampler" : 10,
                    "target" : {
                        "node" : 2,
                        "path" : "rotation"
                    }
                },
                {
                    "sampler" : 11,
                    "target" : {
                        "node" : 2,
                        "path" : "scale"
                    }
                },
                {
                    "sampler" : 12,
                    "target" : {
                        "node" : 3,
                        "path" : "translation"
                    }
                },
                {
                    "sampler" : 13,
                    "target" : {
                        "node" : 3,
                        "path" : "rotation"
                    }
                },
                {
                    "sampler" : 14,
                    "target" : {
                        "node" : 3,
                        "path" : "scale"
                    }
                },
                {
                    "sampler" : 15,
                    "target" : {
                        "node" : 4,
                        "path" : "translation"
                    }
                },
                {
                    "sampler" : 16,
                    "target" : {
                        "node" : 4,
                        "path" : "rotation"
                    }
                },
                {
                    "sampler" : 17,
                    "target" : {
                        "node" : 4,
                        "path" : "scale"
                    }
                }
            ],
            "name" : "ArmatureAction",
            "samplers" : [
                {
                    "input" : 7,
                    "interpolation" : "LINEAR",
                    "output" : 8
                },
                {
                    "input" : 7,
                    "interpolation" : "LINEAR",
                    "output" : 9
                },
                {
                    "input" : 7,
                    "interpolation" : "LINEAR",
                    "output" : 10
                },
                {
                    "input" : 7,
                    "interpolation" : "LINEAR",
                    "output" : 11
                },
                {
                    "input" : 7,
                    "interpolation" : "LINEAR",
                    "output" : 12
                },
                {
                    "input" : 7,
                    "interpolation" : "LINEAR",
                    "output" : 13
                },
                {
                    "input" : 7,
                    "interpolation" : "LINEAR",
                    "output" : 14
                },
                {
                    "input" : 7,
                    "interpolation" : "LINEAR",
                    "output" : 15
                },
                {
                    "input" : 7,
                    "interpolation" : "LINEAR",
                    "output" : 16
                },
                {
                    "input" : 7,
                    "interpolation" : "LINEAR",
                    "output" : 17
                },
                {
                    "input" : 7,
                    "interpolation" : "LINEAR",
                    "output" : 18
                },
                {
                    "input" : 7,
                    "interpolation" : "LINEAR",
                    "output" : 19
                },
                {
                    "input" : 7,
                    "interpolation" : "LINEAR",
                    "output" : 20
                },
                {
                    "input" : 7,
                    "interpolation" : "LINEAR",
                    "output" : 21
                },
                {
                    "input" : 7,
                    "interpolation" : "LINEAR",
                    "output" : 22
                },
                {
                    "input" : 7,
                    "interpolation" : "LINEAR",
                    "output" : 23
                },
                {
                    "input" : 7,
                    "interpolation" : "LINEAR",
                    "output" : 24
                },
                {
                    "input" : 7,
                    "interpolation" : "LINEAR",
                    "output" : 25
                }
            ]
        }
    ],
    "materials" : [
        {
            "alphaCutoff" : 0.5,
            "alphaMode" : "MASK",
            "doubleSided" : true,
            "emissiveFactor" : [
                0,
                0,
                0
            ],
            "name" : "Material.001",
            "pbrMetallicRoughness" : {
                "baseColorTexture" : {
                    "index" : 0,
                    "texCoord" : 0
                },
                "metallicFactor" : 0,
                "roughnessFactor" : 0.5
            }
        }
    ],
    "meshes" : [
        {
            "name" : "Cylinder",
            "primitives" : [
                {
                    "attributes" : {
                        "POSITION" : 0,
                        "NORMAL" : 1,
                        "TEXCOORD_0" : 2,
                        "JOINTS_0" : 3,
                        "WEIGHTS_0" : 4
                    },
                    "indices" : 5,
                    "material" : 0
                }
            ]
        }
    ],
    "textures" : [
        {
            "source" : 0
        }
    ],
    "images" : [
        {
            "bufferView" : 6,
            "mimeType" : "image/png",
            "name" : "korianteri2"
        }
    ],
    "skins" : [
        {
            "inverseBindMatrices" : 6,
            "joints" : [
                5,
                0,
                1,
                2,
                3,
                4
            ],
            "name" : "Armature"
        }
    ],
    "accessors" : [
        {
            "bufferView" : 0,
            "componentType" : 5126,
            "count" : 82,
            "max" : [
                0.26012200117111206,
                1.8349988460540771,
                0.46727675199508667
            ],
            "min" : [
                -0.31808045506477356,
                -0.001264515332877636,
                -0.42319512367248535
            ],
            "type" : "VEC3"
        },
        {
            "bufferView" : 1,
            "componentType" : 5126,
            "count" : 82,
            "type" : "VEC3"
        },
        {
            "bufferView" : 2,
            "componentType" : 5126,
            "count" : 82,
            "type" : "VEC2"
        },
        {
            "bufferView" : 3,
            "componentType" : 5123,
            "count" : 82,
            "type" : "VEC4"
        },
        {
            "bufferView" : 4,
            "componentType" : 5126,
            "count" : 82,
            "type" : "VEC4"
        },
        {
            "bufferView" : 5,
            "componentType" : 5123,
            "count" : 222,
            "type" : "SCALAR"
        },
        {
            "bufferView" : 7,
            "componentType" : 5126,
            "count" : 6,
            "type" : "MAT4"
        },
        {
            "bufferView" : 8,
            "componentType" : 5126,
            "count" : 250,
            "max" : [
                10.416666666666666
            ],
            "min" : [
                0.041666666666666664
            ],
            "type" : "SCALAR"
        },
        {
            "bufferView" : 9,
            "componentType" : 5126,
            "count" : 250,
            "type" : "VEC3"
        },
        {
            "bufferView" : 10,
            "componentType" : 5126,
            "count" : 250,
            "type" : "VEC4"
        },
        {
            "bufferView" : 11,
            "componentType" : 5126,
            "count" : 250,
            "type" : "VEC3"
        },
        {
            "bufferView" : 12,
            "componentType" : 5126,
            "count" : 250,
            "type" : "VEC3"
        },
        {
            "bufferView" : 13,
            "componentType" : 5126,
            "count" : 250,
            "type" : "VEC4"
        },
        {
            "bufferView" : 14,
            "componentType" : 5126,
            "count" : 250,
            "type" : "VEC3"
        },
        {
            "bufferView" : 15,
            "componentType" : 5126,
            "count" : 250,
            "type" : "VEC3"
        },
        {
            "bufferView" : 16,
            "componentType" : 5126,
            "count" : 250,
            "type" : "VEC4"
        },
        {
            "bufferView" : 17,
            "componentType" : 5126,
            "count" : 250,
            "type" : "VEC3"
        },
        {
            "bufferView" : 18,
            "componentType" : 5126,
            "count" : 250,
            "type" : "VEC3"
        },
        {
            "bufferView" : 19,
            "componentType" : 5126,
            "count" : 250,
            "type" : "VEC4"
        },
        {
            "bufferView" : 20,
            "componentType" : 5126,
            "count" : 250,
            "type" : "VEC3"
        },
        {
            "bufferView" : 21,
            "componentType" : 5126,
            "count" : 250,
            "type" : "VEC3"
        },
        {
            "bufferView" : 22,
            "componentType" : 5126,
            "count" : 250,
            "type" : "VEC4"
        },
        {
            "bufferView" : 23,
            "componentType" : 5126,
            "count" : 250,
            "type" : "VEC3"
        },
        {
            "bufferView" : 24,
            "componentType" : 5126,
            "count" : 250,
            "type" : "VEC3"
        },
        {
            "bufferView" : 25,
            "componentType" : 5126,
            "count" : 250,
            "type" : "VEC4"
        },
        {
            "bufferView" : 26,
            "componentType" : 5126,
            "count" : 250,
            "type" : "VEC3"
        }
    ],
    "bufferViews" : [
        {
            "buffer" : 0,
            "byteLength" : 984,
            "byteOffset" : 0
        },
        {
            "buffer" : 0,
            "byteLength" : 984,
            "byteOffset" : 984
        },
        {
            "buffer" : 0,
            "byteLength" : 656,
            "byteOffset" : 1968
        },
        {
            "buffer" : 0,
            "byteLength" : 656,
            "byteOffset" : 2624
        },
        {
            "buffer" : 0,
            "byteLength" : 1312,
            "byteOffset" : 3280
        },
        {
            "buffer" : 0,
            "byteLength" : 444,
            "byteOffset" : 4592
        },
        {
            "buffer" : 0,
            "byteLength" : 100937,
            "byteOffset" : 5036
        },
        {
            "buffer" : 0,
            "byteLength" : 384,
            "byteOffset" : 105976
        },
        {
            "buffer" : 0,
            "byteLength" : 1000,
            "byteOffset" : 106360
        },
        {
            "buffer" : 0,
            "byteLength" : 3000,
            "byteOffset" : 107360
        },
        {
            "buffer" : 0,
            "byteLength" : 4000,
            "byteOffset" : 110360
        },
        {
            "buffer" : 0,
            "byteLength" : 3000,
            "byteOffset" : 114360
        },
        {
            "buffer" : 0,
            "byteLength" : 3000,
            "byteOffset" : 117360
        },
        {
            "buffer" : 0,
            "byteLength" : 4000,
            "byteOffset" : 120360
        },
        {
            "buffer" : 0,
            "byteLength" : 3000,
            "byteOffset" : 124360
        },
        {
            "buffer" : 0,
            "byteLength" : 3000,
            "byteOffset" : 127360
        },
        {
            "buffer" : 0,
            "byteLength" : 4000,
            "byteOffset" : 130360
        },
        {
            "buffer" : 0,
            "byteLength" : 3000,
            "byteOffset" : 134360
        },
        {
            "buffer" : 0,
            "byteLength" : 3000,
            "byteOffset" : 137360
        },
        {
            "buffer" : 0,
            "byteLength" : 4000,
            "byteOffset" : 140360
        },
        {
            "buffer" : 0,
            "byteLength" : 3000,
            "byteOffset" : 144360
        },
        {
            "buffer" : 0,
            "byteLength" : 3000,
            "byteOffset" : 147360
        },
        {
            "buffer" : 0,
            "byteLength" : 4000,
            "byteOffset" : 150360
        },
        {
            "buffer" : 0,
            "byteLength" : 3000,
            "byteOffset" : 154360
        },
        {
            "buffer" : 0,
            "byteLength" : 3000,
            "byteOffset" : 157360
        },
        {
            "buffer" : 0,
            "byteLength" : 4000,
            "byteOffset" : 160360
        },
        {
            "buffer" : 0,
            "byteLength" : 3000,
            "byteOffset" : 164360
        }
    ],
    "buffers" : [
        {
            "byteLength" : 167360,
            "uri" : "data:application/octet-stream;base64,"
        }
    ]
}
