{
    "asset" : {
        "generator" : "Khronos glTF Blender I/O v1.1.46",
        "version" : "2.0"
    },
    "scene" : 0,
    "scenes" : [
        {
            "name" : "Scene",
            "nodes" : [
                4
            ]
        }
    ],
    "nodes" : [
        {
            "name" : "Bone.001",
            "rotation" : [
                -8.658965100494243e-09,
                -3.521909874848461e-08,
                0.029688850045204163,
                0.9995592832565308
            ],
            "scale" : [
                0.009999998845160007,
                0.009999998845160007,
                0.009999999776482582
            ],
            "translation" : [
                7.4505792646561986e-09,
                1.130236029624939,
                -4.440892098500626e-16
            ]
        },
        {
            "name" : "Bone.002",
            "rotation" : [
                9.407970402719457e-09,
                -4.201820402727208e-08,
                -0.6858019232749939,
                0.7277882695198059
            ],
            "scale" : [
                0.009999998845160007,
                0.009999998845160007,
                0.009999999776482582
            ],
            "translation" : [
                0.017473148182034492,
                0.0896003246307373,
                1.7013196185189372e-08
            ]
        },
        {
            "children" : [
                0,
                1
            ],
            "name" : "Bone",
            "rotation" : [
                -3.028134631932744e-09,
                3.5576967150063865e-08,
                -0.029688848182559013,
                0.9995592832565308
            ],
            "scale" : [
                0.009999998845160007,
                0.009999998845160007,
                0.009999998845160007
            ]
        },
        {
            "mesh" : 0,
            "name" : "Cylinder",
            "skin" : 0
        },
        {
            "children" : [
                3,
                2
            ],
            "name" : "Armature"
        }
    ],
    "animations" : [
        {
            "channels" : [
                {
                    "sampler" : 0,
                    "target" : {
                        "node" : 2,
                        "path" : "translation"
                    }
                },
                {
                    "sampler" : 1,
                    "target" : {
                        "node" : 2,
                        "path" : "rotation"
                    }
                },
                {
                    "sampler" : 2,
                    "target" : {
                        "node" : 2,
                        "path" : "scale"
                    }
                },
                {
                    "sampler" : 3,
                    "target" : {
                        "node" : 0,
                        "path" : "translation"
                    }
                },
                {
                    "sampler" : 4,
                    "target" : {
                        "node" : 0,
                        "path" : "rotation"
                    }
                },
                {
                    "sampler" : 5,
                    "target" : {
                        "node" : 0,
                        "path" : "scale"
                    }
                },
                {
                    "sampler" : 6,
                    "target" : {
                        "node" : 1,
                        "path" : "translation"
                    }
                },
                {
                    "sampler" : 7,
                    "target" : {
                        "node" : 1,
                        "path" : "rotation"
                    }
                },
                {
                    "sampler" : 8,
                    "target" : {
                        "node" : 1,
                        "path" : "scale"
                    }
                },
                {
                    "sampler" : 9,
                    "target" : {
                        "node" : 4,
                        "path" : "scale"
                    }
                }
            ],
            "name" : "ArmatureAction",
            "samplers" : [
                {
                    "input" : 19,
                    "interpolation" : "LINEAR",
                    "output" : 20
                },
                {
                    "input" : 19,
                    "interpolation" : "LINEAR",
                    "output" : 21
                },
                {
                    "input" : 19,
                    "interpolation" : "LINEAR",
                    "output" : 22
                },
                {
                    "input" : 19,
                    "interpolation" : "LINEAR",
                    "output" : 23
                },
                {
                    "input" : 19,
                    "interpolation" : "LINEAR",
                    "output" : 24
                },
                {
                    "input" : 19,
                    "interpolation" : "LINEAR",
                    "output" : 25
                },
                {
                    "input" : 19,
                    "interpolation" : "LINEAR",
                    "output" : 26
                },
                {
                    "input" : 19,
                    "interpolation" : "LINEAR",
                    "output" : 27
                },
                {
                    "input" : 19,
                    "interpolation" : "LINEAR",
                    "output" : 28
                },
                {
                    "input" : 29,
                    "interpolation" : "STEP",
                    "output" : 30
                }
            ]
        }
    ],
    "materials" : [
        {
            "alphaCutoff" : 0.5,
            "alphaMode" : "MASK",
            "doubleSided" : true,
            "emissiveFactor" : [
                0,
                0,
                0
            ],
            "name" : "Material",
            "pbrMetallicRoughness" : {
                "baseColorTexture" : {
                    "index" : 0,
                    "texCoord" : 0
                },
                "metallicFactor" : 0
            }
        },
        {
            "doubleSided" : true,
            "emissiveFactor" : [
                0,
                0,
                0
            ],
            "name" : "Material.001",
            "normalTexture" : {
                "index" : 1,
                "texCoord" : 0
            },
            "pbrMetallicRoughness" : {
                "baseColorTexture" : {
                    "index" : 2,
                    "texCoord" : 0
                },
                "metallicFactor" : 0,
                "roughnessFactor" : 0.49166667461395264
            }
        },
        {
            "alphaCutoff" : 0.5,
            "alphaMode" : "MASK",
            "doubleSided" : true,
            "emissiveFactor" : [
                0,
                0,
                0
            ],
            "name" : "Material.002",
            "pbrMetallicRoughness" : {
                "baseColorTexture" : {
                    "index" : 3,
                    "texCoord" : 0
                },
                "metallicFactor" : 0,
                "roughnessFactor" : 0.8500000238418579
            }
        }
    ],
    "meshes" : [
        {
            "name" : "Cylinder",
            "primitives" : [
                {
                    "attributes" : {
                        "POSITION" : 0,
                        "NORMAL" : 1,
                        "TEXCOORD_0" : 2,
                        "JOINTS_0" : 3,
                        "WEIGHTS_0" : 4
                    },
                    "indices" : 5,
                    "material" : 0
                },
                {
                    "attributes" : {
                        "POSITION" : 6,
                        "NORMAL" : 7,
                        "TEXCOORD_0" : 8,
                        "JOINTS_0" : 9,
                        "WEIGHTS_0" : 10
                    },
                    "indices" : 11,
                    "material" : 1
                },
                {
                    "attributes" : {
                        "POSITION" : 12,
                        "NORMAL" : 13,
                        "TEXCOORD_0" : 14,
                        "JOINTS_0" : 15,
                        "WEIGHTS_0" : 16
                    },
                    "indices" : 17,
                    "material" : 2
                }
            ]
        }
    ],
    "textures" : [
        {
            "source" : 0
        },
        {
            "source" : 1
        },
        {
            "source" : 2
        },
        {
            "source" : 3
        }
    ],
    "images" : [
        {
            "bufferView" : 6,
            "mimeType" : "image/png",
            "name" : "Leave"
        },
        {
            "bufferView" : 13,
            "mimeType" : "image/jpeg",
            "name" : "Normal"
        },
        {
            "bufferView" : 14,
            "mimeType" : "image/jpeg",
            "name" : "BaseColor"
        },
        {
            "bufferView" : 21,
            "mimeType" : "image/png",
            "name" : "LehtiBaseColor-lakkalehti"
        }
    ],
    "skins" : [
        {
            "inverseBindMatrices" : 18,
            "joints" : [
                2,
                0,
                1
            ],
            "name" : "Armature"
        }
    ],
    "accessors" : [
        {
            "bufferView" : 0,
            "componentType" : 5126,
            "count" : 112,
            "max" : [
                0.4427478313446045,
                1.5323542356491089,
                0.4731992185115814
            ],
            "min" : [
                -0.39141714572906494,
                -0.0007737547857686877,
                -0.3808993697166443
            ],
            "type" : "VEC3"
        },
        {
            "bufferView" : 1,
            "componentType" : 5126,
            "count" : 112,
            "type" : "VEC3"
        },
        {
            "bufferView" : 2,
            "componentType" : 5126,
            "count" : 112,
            "type" : "VEC2"
        },
        {
            "bufferView" : 3,
            "componentType" : 5123,
            "count" : 112,
            "type" : "VEC4"
        },
        {
            "bufferView" : 4,
            "componentType" : 5126,
            "count" : 112,
            "type" : "VEC4"
        },
        {
            "bufferView" : 5,
            "componentType" : 5123,
            "count" : 330,
            "type" : "SCALAR"
        },
        {
            "bufferView" : 7,
            "componentType" : 5126,
            "count" : 464,
            "max" : [
                0.38720691204071045,
                1.7297677993774414,
                0.39395472407341003
            ],
            "min" : [
                -0.3254619836807251,
                1.0772414207458496,
                -0.31921422481536865
            ],
            "type" : "VEC3"
        },
        {
            "bufferView" : 8,
            "componentType" : 5126,
            "count" : 464,
            "type" : "VEC3"
        },
        {
            "bufferView" : 9,
            "componentType" : 5126,
            "count" : 464,
            "type" : "VEC2"
        },
        {
            "bufferView" : 10,
            "componentType" : 5123,
            "count" : 464,
            "type" : "VEC4"
        },
        {
            "bufferView" : 11,
            "componentType" : 5126,
            "count" : 464,
            "type" : "VEC4"
        },
        {
            "bufferView" : 12,
            "componentType" : 5123,
            "count" : 2544,
            "type" : "SCALAR"
        },
        {
            "bufferView" : 15,
            "componentType" : 5126,
            "count" : 30,
            "max" : [
                0.8639084696769714,
                0.4737569987773895,
                0.7980303168296814
            ],
            "min" : [
                -0.9707223773002625,
                0.018646566197276115,
                -0.7912624478340149
            ],
            "type" : "VEC3"
        },
        {
            "bufferView" : 16,
            "componentType" : 5126,
            "count" : 30,
            "type" : "VEC3"
        },
        {
            "bufferView" : 17,
            "componentType" : 5126,
            "count" : 30,
            "type" : "VEC2"
        },
        {
            "bufferView" : 18,
            "componentType" : 5123,
            "count" : 30,
            "type" : "VEC4"
        },
        {
            "bufferView" : 19,
            "componentType" : 5126,
            "count" : 30,
            "type" : "VEC4"
        },
        {
            "bufferView" : 20,
            "componentType" : 5123,
            "count" : 72,
            "type" : "SCALAR"
        },
        {
            "bufferView" : 22,
            "componentType" : 5126,
            "count" : 3,
            "type" : "MAT4"
        },
        {
            "bufferView" : 23,
            "componentType" : 5126,
            "count" : 250,
            "max" : [
                10.416666666666666
            ],
            "min" : [
                0.041666666666666664
            ],
            "type" : "SCALAR"
        },
        {
            "bufferView" : 24,
            "componentType" : 5126,
            "count" : 250,
            "type" : "VEC3"
        },
        {
            "bufferView" : 25,
            "componentType" : 5126,
            "count" : 250,
            "type" : "VEC4"
        },
        {
            "bufferView" : 26,
            "componentType" : 5126,
            "count" : 250,
            "type" : "VEC3"
        },
        {
            "bufferView" : 27,
            "componentType" : 5126,
            "count" : 250,
            "type" : "VEC3"
        },
        {
            "bufferView" : 28,
            "componentType" : 5126,
            "count" : 250,
            "type" : "VEC4"
        },
        {
            "bufferView" : 29,
            "componentType" : 5126,
            "count" : 250,
            "type" : "VEC3"
        },
        {
            "bufferView" : 30,
            "componentType" : 5126,
            "count" : 250,
            "type" : "VEC3"
        },
        {
            "bufferView" : 31,
            "componentType" : 5126,
            "count" : 250,
            "type" : "VEC4"
        },
        {
            "bufferView" : 32,
            "componentType" : 5126,
            "count" : 250,
            "type" : "VEC3"
        },
        {
            "bufferView" : 33,
            "componentType" : 5126,
            "count" : 1,
            "max" : [
                10.416666666666666
            ],
            "min" : [
                10.416666666666666
            ],
            "type" : "SCALAR"
        },
        {
            "bufferView" : 34,
            "componentType" : 5126,
            "count" : 1,
            "type" : "VEC3"
        }
    ],
    "bufferViews" : [
        {
            "buffer" : 0,
            "byteLength" : 1344,
            "byteOffset" : 0
        },
        {
            "buffer" : 0,
            "byteLength" : 1344,
            "byteOffset" : 1344
        },
        {
            "buffer" : 0,
            "byteLength" : 896,
            "byteOffset" : 2688
        },
        {
            "buffer" : 0,
            "byteLength" : 896,
            "byteOffset" : 3584
        },
        {
            "buffer" : 0,
            "byteLength" : 1792,
            "byteOffset" : 4480
        },
        {
            "buffer" : 0,
            "byteLength" : 660,
            "byteOffset" : 6272
        },
        {
            "buffer" : 0,
            "byteLength" : 131025,
            "byteOffset" : 6932
        },
        {
            "buffer" : 0,
            "byteLength" : 5568,
            "byteOffset" : 137960
        },
        {
            "buffer" : 0,
            "byteLength" : 5568,
            "byteOffset" : 143528
        },
        {
            "buffer" : 0,
            "byteLength" : 3712,
            "byteOffset" : 149096
        },
        {
            "buffer" : 0,
            "byteLength" : 3712,
            "byteOffset" : 152808
        },
        {
            "buffer" : 0,
            "byteLength" : 7424,
            "byteOffset" : 156520
        },
        {
            "buffer" : 0,
            "byteLength" : 5088,
            "byteOffset" : 163944
        },
        {
            "buffer" : 0,
            "byteLength" : 58993,
            "byteOffset" : 169032
        },
        {
            "buffer" : 0,
            "byteLength" : 25789,
            "byteOffset" : 228028
        },
        {
            "buffer" : 0,
            "byteLength" : 360,
            "byteOffset" : 253820
        },
        {
            "buffer" : 0,
            "byteLength" : 360,
            "byteOffset" : 254180
        },
        {
            "buffer" : 0,
            "byteLength" : 240,
            "byteOffset" : 254540
        },
        {
            "buffer" : 0,
            "byteLength" : 240,
            "byteOffset" : 254780
        },
        {
            "buffer" : 0,
            "byteLength" : 480,
            "byteOffset" : 255020
        },
        {
            "buffer" : 0,
            "byteLength" : 144,
            "byteOffset" : 255500
        },
        {
            "buffer" : 0,
            "byteLength" : 18701,
            "byteOffset" : 255644
        },
        {
            "buffer" : 0,
            "byteLength" : 192,
            "byteOffset" : 274348
        },
        {
            "buffer" : 0,
            "byteLength" : 1000,
            "byteOffset" : 274540
        },
        {
            "buffer" : 0,
            "byteLength" : 3000,
            "byteOffset" : 275540
        },
        {
            "buffer" : 0,
            "byteLength" : 4000,
            "byteOffset" : 278540
        },
        {
            "buffer" : 0,
            "byteLength" : 3000,
            "byteOffset" : 282540
        },
        {
            "buffer" : 0,
            "byteLength" : 3000,
            "byteOffset" : 285540
        },
        {
            "buffer" : 0,
            "byteLength" : 4000,
            "byteOffset" : 288540
        },
        {
            "buffer" : 0,
            "byteLength" : 3000,
            "byteOffset" : 292540
        },
        {
            "buffer" : 0,
            "byteLength" : 3000,
            "byteOffset" : 295540
        },
        {
            "buffer" : 0,
            "byteLength" : 4000,
            "byteOffset" : 298540
        },
        {
            "buffer" : 0,
            "byteLength" : 3000,
            "byteOffset" : 302540
        },
        {
            "buffer" : 0,
            "byteLength" : 4,
            "byteOffset" : 305540
        },
        {
            "buffer" : 0,
            "byteLength" : 12,
            "byteOffset" : 305544
        }
    ],
    "buffers" : [
        {
            "byteLength" : 305556,
            "uri" : "data:application/octet-stream;base64,"
        }
    ]
}
