{
    "asset" : {
        "generator" : "Khronos glTF Blender I/O v1.1.46",
        "version" : "2.0"
    },
    "scene" : 0,
    "scenes" : [
        {
            "name" : "Scene",
            "nodes" : [
                5
            ]
        }
    ],
    "nodes" : [
        {
            "name" : "Bone.001",
            "rotation" : [
                3.9104687488134005e-08,
                3.7959169141288385e-09,
                -0.0007008298416621983,
                0.9999997615814209
            ],
            "scale" : [
                0.009999998845160007,
                0.009999998845160007,
                0.009999999776482582
            ],
            "translation" : [
                -6.473988012345444e-15,
                1.7204302549362183,
                1.3100631690576847e-14
            ]
        },
        {
            "name" : "Bone.002",
            "rotation" : [
                -2.4901668282950595e-08,
                -7.305775540089599e-08,
                -0.7122445702552795,
                0.7019314169883728
            ],
            "scale" : [
                0.009999998845160007,
                0.009999998845160007,
                0.009999999776482582
            ],
            "translation" : [
                0.07814304530620575,
                1.1304967403411865,
                -4.058694003106211e-08
            ]
        },
        {
            "name" : "Bone.003",
            "rotation" : [
                5.8539121994272136e-08,
                1.0058783139754723e-08,
                -0.7261764407157898,
                0.6875083446502686
            ],
            "scale" : [
                0.009999999776482582,
                0.009999999776482582,
                0.009999999776482582
            ],
            "translation" : [
                0.016123363748192787,
                0.3502403199672699,
                -1.0588671983668974e-07
            ]
        },
        {
            "children" : [
                0,
                1,
                2
            ],
            "name" : "Bone",
            "rotation" : [
                2.3458763820372042e-08,
                3.3830467316420254e-08,
                0.009575492702424526,
                0.9999541640281677
            ],
            "scale" : [
                0.009999999776482582,
                0.009999999776482582,
                0.009999998845160007
            ]
        },
        {
            "mesh" : 0,
            "name" : "Cylinder",
            "skin" : 0
        },
        {
            "children" : [
                4,
                3
            ],
            "name" : "Armature"
        }
    ],
    "animations" : [
        {
            "channels" : [
                {
                    "sampler" : 0,
                    "target" : {
                        "node" : 3,
                        "path" : "translation"
                    }
                },
                {
                    "sampler" : 1,
                    "target" : {
                        "node" : 3,
                        "path" : "rotation"
                    }
                },
                {
                    "sampler" : 2,
                    "target" : {
                        "node" : 3,
                        "path" : "scale"
                    }
                },
                {
                    "sampler" : 3,
                    "target" : {
                        "node" : 0,
                        "path" : "translation"
                    }
                },
                {
                    "sampler" : 4,
                    "target" : {
                        "node" : 0,
                        "path" : "rotation"
                    }
                },
                {
                    "sampler" : 5,
                    "target" : {
                        "node" : 0,
                        "path" : "scale"
                    }
                },
                {
                    "sampler" : 6,
                    "target" : {
                        "node" : 1,
                        "path" : "translation"
                    }
                },
                {
                    "sampler" : 7,
                    "target" : {
                        "node" : 1,
                        "path" : "rotation"
                    }
                },
                {
                    "sampler" : 8,
                    "target" : {
                        "node" : 1,
                        "path" : "scale"
                    }
                },
                {
                    "sampler" : 9,
                    "target" : {
                        "node" : 2,
                        "path" : "translation"
                    }
                },
                {
                    "sampler" : 10,
                    "target" : {
                        "node" : 2,
                        "path" : "rotation"
                    }
                },
                {
                    "sampler" : 11,
                    "target" : {
                        "node" : 2,
                        "path" : "scale"
                    }
                }
            ],
            "name" : "ArmatureAction.003",
            "samplers" : [
                {
                    "input" : 7,
                    "interpolation" : "LINEAR",
                    "output" : 8
                },
                {
                    "input" : 7,
                    "interpolation" : "LINEAR",
                    "output" : 9
                },
                {
                    "input" : 7,
                    "interpolation" : "LINEAR",
                    "output" : 10
                },
                {
                    "input" : 7,
                    "interpolation" : "LINEAR",
                    "output" : 11
                },
                {
                    "input" : 7,
                    "interpolation" : "LINEAR",
                    "output" : 12
                },
                {
                    "input" : 7,
                    "interpolation" : "LINEAR",
                    "output" : 13
                },
                {
                    "input" : 7,
                    "interpolation" : "LINEAR",
                    "output" : 14
                },
                {
                    "input" : 7,
                    "interpolation" : "LINEAR",
                    "output" : 15
                },
                {
                    "input" : 7,
                    "interpolation" : "LINEAR",
                    "output" : 16
                },
                {
                    "input" : 7,
                    "interpolation" : "LINEAR",
                    "output" : 17
                },
                {
                    "input" : 7,
                    "interpolation" : "LINEAR",
                    "output" : 18
                },
                {
                    "input" : 7,
                    "interpolation" : "LINEAR",
                    "output" : 19
                }
            ]
        }
    ],
    "materials" : [
        {
            "alphaCutoff" : 0.5,
            "alphaMode" : "MASK",
            "doubleSided" : true,
            "emissiveFactor" : [
                0,
                0,
                0
            ],
            "name" : "Material.001",
            "normalTexture" : {
                "index" : 0,
                "texCoord" : 0
            },
            "pbrMetallicRoughness" : {
                "baseColorTexture" : {
                    "index" : 1,
                    "texCoord" : 0
                },
                "metallicFactor" : 0,
                "roughnessFactor" : 0.9028571844100952
            }
        }
    ],
    "meshes" : [
        {
            "name" : "Cylinder",
            "primitives" : [
                {
                    "attributes" : {
                        "POSITION" : 0,
                        "NORMAL" : 1,
                        "TEXCOORD_0" : 2,
                        "JOINTS_0" : 3,
                        "WEIGHTS_0" : 4
                    },
                    "indices" : 5,
                    "material" : 0
                }
            ]
        }
    ],
    "textures" : [
        {
            "source" : 0
        },
        {
            "source" : 1
        }
    ],
    "images" : [
        {
            "bufferView" : 6,
            "mimeType" : "image/jpeg",
            "name" : "ruusu"
        },
        {
            "bufferView" : 7,
            "mimeType" : "image/png",
            "name" : "ruusu"
        }
    ],
    "skins" : [
        {
            "inverseBindMatrices" : 6,
            "joints" : [
                3,
                0,
                1,
                2
            ],
            "name" : "Armature"
        }
    ],
    "accessors" : [
        {
            "bufferView" : 0,
            "componentType" : 5126,
            "count" : 127,
            "max" : [
                0.661688506603241,
                1.849528431892395,
                0.6549699306488037
            ],
            "min" : [
                -0.6139492988586426,
                -0.03263162449002266,
                -0.6661471724510193
            ],
            "type" : "VEC3"
        },
        {
            "bufferView" : 1,
            "componentType" : 5126,
            "count" : 127,
            "type" : "VEC3"
        },
        {
            "bufferView" : 2,
            "componentType" : 5126,
            "count" : 127,
            "type" : "VEC2"
        },
        {
            "bufferView" : 3,
            "componentType" : 5123,
            "count" : 127,
            "type" : "VEC4"
        },
        {
            "bufferView" : 4,
            "componentType" : 5126,
            "count" : 127,
            "type" : "VEC4"
        },
        {
            "bufferView" : 5,
            "componentType" : 5123,
            "count" : 420,
            "type" : "SCALAR"
        },
        {
            "bufferView" : 8,
            "componentType" : 5126,
            "count" : 4,
            "type" : "MAT4"
        },
        {
            "bufferView" : 9,
            "componentType" : 5126,
            "count" : 90,
            "max" : [
                3.75
            ],
            "min" : [
                0.041666666666666664
            ],
            "type" : "SCALAR"
        },
        {
            "bufferView" : 10,
            "componentType" : 5126,
            "count" : 90,
            "type" : "VEC3"
        },
        {
            "bufferView" : 11,
            "componentType" : 5126,
            "count" : 90,
            "type" : "VEC4"
        },
        {
            "bufferView" : 12,
            "componentType" : 5126,
            "count" : 90,
            "type" : "VEC3"
        },
        {
            "bufferView" : 13,
            "componentType" : 5126,
            "count" : 90,
            "type" : "VEC3"
        },
        {
            "bufferView" : 14,
            "componentType" : 5126,
            "count" : 90,
            "type" : "VEC4"
        },
        {
            "bufferView" : 15,
            "componentType" : 5126,
            "count" : 90,
            "type" : "VEC3"
        },
        {
            "bufferView" : 16,
            "componentType" : 5126,
            "count" : 90,
            "type" : "VEC3"
        },
        {
            "bufferView" : 17,
            "componentType" : 5126,
            "count" : 90,
            "type" : "VEC4"
        },
        {
            "bufferView" : 18,
            "componentType" : 5126,
            "count" : 90,
            "type" : "VEC3"
        },
        {
            "bufferView" : 19,
            "componentType" : 5126,
            "count" : 90,
            "type" : "VEC3"
        },
        {
            "bufferView" : 20,
            "componentType" : 5126,
            "count" : 90,
            "type" : "VEC4"
        },
        {
            "bufferView" : 21,
            "componentType" : 5126,
            "count" : 90,
            "type" : "VEC3"
        }
    ],
    "bufferViews" : [
        {
            "buffer" : 0,
            "byteLength" : 1524,
            "byteOffset" : 0
        },
        {
            "buffer" : 0,
            "byteLength" : 1524,
            "byteOffset" : 1524
        },
        {
            "buffer" : 0,
            "byteLength" : 1016,
            "byteOffset" : 3048
        },
        {
            "buffer" : 0,
            "byteLength" : 1016,
            "byteOffset" : 4064
        },
        {
            "buffer" : 0,
            "byteLength" : 2032,
            "byteOffset" : 5080
        },
        {
            "buffer" : 0,
            "byteLength" : 840,
            "byteOffset" : 7112
        },
        {
            "buffer" : 0,
            "byteLength" : 37555,
            "byteOffset" : 7952
        },
        {
            "buffer" : 0,
            "byteLength" : 218186,
            "byteOffset" : 45508
        },
        {
            "buffer" : 0,
            "byteLength" : 256,
            "byteOffset" : 263696
        },
        {
            "buffer" : 0,
            "byteLength" : 360,
            "byteOffset" : 263952
        },
        {
            "buffer" : 0,
            "byteLength" : 1080,
            "byteOffset" : 264312
        },
        {
            "buffer" : 0,
            "byteLength" : 1440,
            "byteOffset" : 265392
        },
        {
            "buffer" : 0,
            "byteLength" : 1080,
            "byteOffset" : 266832
        },
        {
            "buffer" : 0,
            "byteLength" : 1080,
            "byteOffset" : 267912
        },
        {
            "buffer" : 0,
            "byteLength" : 1440,
            "byteOffset" : 268992
        },
        {
            "buffer" : 0,
            "byteLength" : 1080,
            "byteOffset" : 270432
        },
        {
            "buffer" : 0,
            "byteLength" : 1080,
            "byteOffset" : 271512
        },
        {
            "buffer" : 0,
            "byteLength" : 1440,
            "byteOffset" : 272592
        },
        {
            "buffer" : 0,
            "byteLength" : 1080,
            "byteOffset" : 274032
        },
        {
            "buffer" : 0,
            "byteLength" : 1080,
            "byteOffset" : 275112
        },
        {
            "buffer" : 0,
            "byteLength" : 1440,
            "byteOffset" : 276192
        },
        {
            "buffer" : 0,
            "byteLength" : 1080,
            "byteOffset" : 277632
        }
    ],
    "buffers" : [
        {
            "byteLength" : 278712,
            "uri" : "data:application/octet-stream;base64,"
        }
    ]
}
