{
    "asset" : {
        "generator" : "Khronos glTF Blender I/O v1.1.45",
        "version" : "2.0"
    },
    "scene" : 0,
    "scenes" : [
        {
            "name" : "Scene",
            "nodes" : [
                0
            ]
        }
    ],
    "nodes" : [
        {
            "mesh" : 0,
            "name" : "Cylinder.004"
        }
    ],
    "materials" : [
        {
            "doubleSided" : true,
            "emissiveFactor" : [
                0,
                0,
                0
            ],
            "name" : "Material.002",
            "pbrMetallicRoughness" : {
                "baseColorFactor" : [
                    0.16794857382774353,
                    0.021560585126280785,
                    0.04897058755159378,
                    1
                ],
                "metallicFactor" : 0,
                "roughnessFactor" : 0.75
            }
        },
        {
            "alphaCutoff" : 0.5,
            "alphaMode" : "MASK",
            "doubleSided" : true,
            "emissiveFactor" : [
                0,
                0,
                0
            ],
            "name" : "Material.001",
            "normalTexture" : {
                "index" : 0,
                "texCoord" : 0
            },
            "pbrMetallicRoughness" : {
                "baseColorTexture" : {
                    "index" : 1,
                    "texCoord" : 0
                },
                "metallicFactor" : 0,
                "roughnessFactor" : 0.800000011920929
            }
        }
    ],
    "meshes" : [
        {
            "name" : "Cylinder.015",
            "primitives" : [
                {
                    "attributes" : {
                        "POSITION" : 0,
                        "NORMAL" : 1,
                        "TEXCOORD_0" : 2
                    },
                    "indices" : 3,
                    "material" : 0
                },
                {
                    "attributes" : {
                        "POSITION" : 4,
                        "NORMAL" : 5,
                        "TEXCOORD_0" : 6
                    },
                    "indices" : 7,
                    "material" : 1
                }
            ]
        }
    ],
    "textures" : [
        {
            "source" : 0
        },
        {
            "source" : 1
        }
    ],
    "images" : [
        {
            "bufferView" : 8,
            "mimeType" : "image/jpeg",
            "name" : "ruusu2"
        },
        {
            "bufferView" : 9,
            "mimeType" : "image/png",
            "name" : "ruusu2"
        }
    ],
    "accessors" : [
        {
            "bufferView" : 0,
            "componentType" : 5126,
            "count" : 1220,
            "max" : [
                0.5523908138275146,
                1.9709457159042358,
                0.8270995616912842
            ],
            "min" : [
                -1.1731752157211304,
                -0.6474366784095764,
                -1.2931110858917236
            ],
            "type" : "VEC3"
        },
        {
            "bufferView" : 1,
            "componentType" : 5126,
            "count" : 1220,
            "type" : "VEC3"
        },
        {
            "bufferView" : 2,
            "componentType" : 5126,
            "count" : 1220,
            "type" : "VEC2"
        },
        {
            "bufferView" : 3,
            "componentType" : 5123,
            "count" : 4560,
            "type" : "SCALAR"
        },
        {
            "bufferView" : 4,
            "componentType" : 5126,
            "count" : 305,
            "max" : [
                0.8417935371398926,
                2.3028011322021484,
                1.126970648765564
            ],
            "min" : [
                -1.5140405893325806,
                0.04533791542053223,
                -1.576719880104065
            ],
            "type" : "VEC3"
        },
        {
            "bufferView" : 5,
            "componentType" : 5126,
            "count" : 305,
            "type" : "VEC3"
        },
        {
            "bufferView" : 6,
            "componentType" : 5126,
            "count" : 305,
            "type" : "VEC2"
        },
        {
            "bufferView" : 7,
            "componentType" : 5123,
            "count" : 750,
            "type" : "SCALAR"
        }
    ],
    "bufferViews" : [
        {
            "buffer" : 0,
            "byteLength" : 14640,
            "byteOffset" : 0
        },
        {
            "buffer" : 0,
            "byteLength" : 14640,
            "byteOffset" : 14640
        },
        {
            "buffer" : 0,
            "byteLength" : 9760,
            "byteOffset" : 29280
        },
        {
            "buffer" : 0,
            "byteLength" : 9120,
            "byteOffset" : 39040
        },
        {
            "buffer" : 0,
            "byteLength" : 3660,
            "byteOffset" : 48160
        },
        {
            "buffer" : 0,
            "byteLength" : 3660,
            "byteOffset" : 51820
        },
        {
            "buffer" : 0,
            "byteLength" : 2440,
            "byteOffset" : 55480
        },
        {
            "buffer" : 0,
            "byteLength" : 1500,
            "byteOffset" : 57920
        },
        {
            "buffer" : 0,
            "byteLength" : 32145,
            "byteOffset" : 59420
        },
        {
            "buffer" : 0,
            "byteLength" : 248728,
            "byteOffset" : 91568
        }
    ],
    "buffers" : [
        {
            "byteLength" : 340296,
            "uri" : "data:application/octet-stream;base64,"
        }
    ]
}
