{
    "asset" : {
        "generator" : "Khronos glTF Blender I/O v1.0.5",
        "version" : "2.0"
    },
    "scene" : 0,
    "scenes" : [
        {
            "name" : "Scene",
            "nodes" : [
                0,
                1
            ]
        }
    ],
    "nodes" : [
        {
            "mesh" : 0,
            "name" : "Cube.006",
            "rotation" : [
                0,
                0,
                -0.9238795638084412,
                -0.3826833963394165
            ],
            "translation" : [
                0,
                0.01623690128326416,
                0
            ]
        },
        {
            "mesh" : 1,
            "name" : "Cube.000",
            "rotation" : [
                0,
                0,
                -0.9238795638084412,
                -0.3826833963394165
            ],
            "translation" : [
                0,
                0.5671082139015198,
                0.08507777005434036
            ]
        }
    ],
    "animations" : [
        {
            "channels" : [
                {
                    "sampler" : 0,
                    "target" : {
                        "node" : 1,
                        "path" : "rotation"
                    }
                }
            ],
            "name" : "Cube.000Action",
            "samplers" : [
                {
                    "input" : 8,
                    "interpolation" : "LINEAR",
                    "output" : 9
                }
            ]
        }
    ],
    "materials" : [
        {
            "doubleSided" : true,
            "name" : "Material",
            "pbrMetallicRoughness" : {
                "baseColorTexture" : {
                    "index" : 0,
                    "texCoord" : 0
                },
                "metallicFactor" : 0,
                "roughnessFactor" : 0.8090909123420715
            }
        }
    ],
    "meshes" : [
        {
            "name" : "Cube.007",
            "primitives" : [
                {
                    "attributes" : {
                        "POSITION" : 0,
                        "NORMAL" : 1,
                        "TEXCOORD_0" : 2
                    },
                    "indices" : 3,
                    "material" : 0
                }
            ]
        },
        {
            "name" : "Cube.000",
            "primitives" : [
                {
                    "attributes" : {
                        "POSITION" : 4,
                        "NORMAL" : 5,
                        "TEXCOORD_0" : 6
                    },
                    "indices" : 7,
                    "material" : 0
                }
            ]
        }
    ],
    "textures" : [
        {
            "source" : 0
        }
    ],
    "images" : [
        {
            "bufferView" : 4,
            "mimeType" : "image/jpeg",
            "name" : "Color"
        }
    ],
    "accessors" : [
        {
            "bufferView" : 0,
            "componentType" : 5126,
            "count" : 905,
            "max" : [
                0.596331000328064,
                0.4880502223968506,
                0.8000001311302185
            ],
            "min" : [
                -0.48805028200149536,
                -0.5963310599327087,
                -0.800000011920929
            ],
            "type" : "VEC3"
        },
        {
            "bufferView" : 1,
            "componentType" : 5126,
            "count" : 905,
            "type" : "VEC3"
        },
        {
            "bufferView" : 2,
            "componentType" : 5126,
            "count" : 905,
            "type" : "VEC2"
        },
        {
            "bufferView" : 3,
            "componentType" : 5123,
            "count" : 3102,
            "type" : "SCALAR"
        },
        {
            "bufferView" : 5,
            "componentType" : 5126,
            "count" : 278,
            "max" : [
                0.39308303594589233,
                0.3948068618774414,
                8.940696716308594e-08
            ],
            "min" : [
                -0.39497703313827515,
                -0.39325326681137085,
                -0.09760512411594391
            ],
            "type" : "VEC3"
        },
        {
            "bufferView" : 6,
            "componentType" : 5126,
            "count" : 278,
            "type" : "VEC3"
        },
        {
            "bufferView" : 7,
            "componentType" : 5126,
            "count" : 278,
            "type" : "VEC2"
        },
        {
            "bufferView" : 8,
            "componentType" : 5123,
            "count" : 828,
            "type" : "SCALAR"
        },
        {
            "bufferView" : 9,
            "componentType" : 5126,
            "count" : 60,
            "max" : [
                2.5
            ],
            "min" : [
                0.041666666666666664
            ],
            "type" : "SCALAR"
        },
        {
            "bufferView" : 10,
            "componentType" : 5126,
            "count" : 60,
            "type" : "VEC4"
        }
    ],
    "bufferViews" : [
        {
            "buffer" : 0,
            "byteLength" : 10860,
            "byteOffset" : 0
        },
        {
            "buffer" : 0,
            "byteLength" : 10860,
            "byteOffset" : 10860
        },
        {
            "buffer" : 0,
            "byteLength" : 7240,
            "byteOffset" : 21720
        },
        {
            "buffer" : 0,
            "byteLength" : 6204,
            "byteOffset" : 28960
        },
        {
            "buffer" : 0,
            "byteLength" : 13191,
            "byteOffset" : 35164
        },
        {
            "buffer" : 0,
            "byteLength" : 3336,
            "byteOffset" : 48356
        },
        {
            "buffer" : 0,
            "byteLength" : 3336,
            "byteOffset" : 51692
        },
        {
            "buffer" : 0,
            "byteLength" : 2224,
            "byteOffset" : 55028
        },
        {
            "buffer" : 0,
            "byteLength" : 1656,
            "byteOffset" : 57252
        },
        {
            "buffer" : 0,
            "byteLength" : 240,
            "byteOffset" : 58908
        },
        {
            "buffer" : 0,
            "byteLength" : 960,
            "byteOffset" : 59148
        }
    ],
    "buffers" : [
        {
            "byteLength" : 60108,
            "uri" : "data:application/octet-stream;base64,"
        }
    ]
}
