{
    "asset" : {
        "generator" : "Khronos glTF Blender I/O v1.0.5",
        "version" : "2.0"
    },
    "scene" : 0,
    "scenes" : [
        {
            "name" : "Scene",
            "nodes" : [
                0,
                1,
                7
            ]
        }
    ],
    "nodes" : [
        {
            "mesh" : 0,
            "name" : "Cube.000",
            "rotation" : [
                0,
                0,
                -0.9238795638084412,
                -0.3826833963394165
            ],
            "translation" : [
                0,
                0.5671082139015198,
                0.08507777005434036
            ]
        },
        {
            "mesh" : 1,
            "name" : "Cylinder",
            "translation" : [
                0,
                0.01623678207397461,
                0
            ]
        },
        {
            "name" : "Bone.003",
            "rotation" : [
                7.287451270424823e-17,
                -2.8264952600665083e-09,
                0.021036915481090546,
                0.999778687953949
            ],
            "scale" : [
                0.9999999403953552,
                0.9999999403953552,
                1
            ],
            "translation" : [
                0,
                0.13759011030197144,
                0
            ]
        },
        {
            "children" : [
                2
            ],
            "name" : "Bone.002",
            "rotation" : [
                2.777031597414461e-17,
                -4.376892182023084e-09,
                0.03257613629102707,
                0.9994692802429199
            ],
            "translation" : [
                0,
                0.13077451288700104,
                0
            ]
        },
        {
            "children" : [
                3
            ],
            "name" : "Bone.001",
            "rotation" : [
                0,
                -3.4709601859361783e-09,
                0.025833504274487495,
                0.9996662735939026
            ],
            "translation" : [
                0,
                0.13874046504497528,
                0
            ]
        },
        {
            "children" : [
                4
            ],
            "name" : "Bone"
        },
        {
            "mesh" : 2,
            "name" : "Cylinder.001",
            "skin" : 0
        },
        {
            "children" : [
                6,
                5
            ],
            "name" : "Armature",
            "translation" : [
                0.34475669264793396,
                0.010961724445223808,
                -0.3279784619808197
            ]
        }
    ],
    "animations" : [
        {
            "channels" : [
                {
                    "sampler" : 0,
                    "target" : {
                        "node" : 0,
                        "path" : "rotation"
                    }
                }
            ],
            "name" : "Cube.000Action",
            "samplers" : [
                {
                    "input" : 15,
                    "interpolation" : "LINEAR",
                    "output" : 16
                }
            ]
        },
        {
            "channels" : [
                {
                    "sampler" : 0,
                    "target" : {
                        "node" : 5,
                        "path" : "translation"
                    }
                },
                {
                    "sampler" : 1,
                    "target" : {
                        "node" : 5,
                        "path" : "rotation"
                    }
                },
                {
                    "sampler" : 2,
                    "target" : {
                        "node" : 5,
                        "path" : "scale"
                    }
                },
                {
                    "sampler" : 3,
                    "target" : {
                        "node" : 4,
                        "path" : "translation"
                    }
                },
                {
                    "sampler" : 4,
                    "target" : {
                        "node" : 4,
                        "path" : "rotation"
                    }
                },
                {
                    "sampler" : 5,
                    "target" : {
                        "node" : 4,
                        "path" : "scale"
                    }
                },
                {
                    "sampler" : 6,
                    "target" : {
                        "node" : 3,
                        "path" : "translation"
                    }
                },
                {
                    "sampler" : 7,
                    "target" : {
                        "node" : 3,
                        "path" : "rotation"
                    }
                },
                {
                    "sampler" : 8,
                    "target" : {
                        "node" : 3,
                        "path" : "scale"
                    }
                },
                {
                    "sampler" : 9,
                    "target" : {
                        "node" : 2,
                        "path" : "translation"
                    }
                },
                {
                    "sampler" : 10,
                    "target" : {
                        "node" : 2,
                        "path" : "rotation"
                    }
                },
                {
                    "sampler" : 11,
                    "target" : {
                        "node" : 2,
                        "path" : "scale"
                    }
                }
            ],
            "name" : "TreeWind",
            "samplers" : [
                {
                    "input" : 15,
                    "interpolation" : "LINEAR",
                    "output" : 17
                },
                {
                    "input" : 15,
                    "interpolation" : "LINEAR",
                    "output" : 18
                },
                {
                    "input" : 15,
                    "interpolation" : "LINEAR",
                    "output" : 19
                },
                {
                    "input" : 15,
                    "interpolation" : "LINEAR",
                    "output" : 20
                },
                {
                    "input" : 15,
                    "interpolation" : "LINEAR",
                    "output" : 21
                },
                {
                    "input" : 15,
                    "interpolation" : "LINEAR",
                    "output" : 22
                },
                {
                    "input" : 15,
                    "interpolation" : "LINEAR",
                    "output" : 23
                },
                {
                    "input" : 15,
                    "interpolation" : "LINEAR",
                    "output" : 24
                },
                {
                    "input" : 15,
                    "interpolation" : "LINEAR",
                    "output" : 25
                },
                {
                    "input" : 15,
                    "interpolation" : "LINEAR",
                    "output" : 26
                },
                {
                    "input" : 15,
                    "interpolation" : "LINEAR",
                    "output" : 27
                },
                {
                    "input" : 15,
                    "interpolation" : "LINEAR",
                    "output" : 28
                }
            ]
        }
    ],
    "materials" : [
        {
            "doubleSided" : true,
            "name" : "Material",
            "pbrMetallicRoughness" : {
                "baseColorTexture" : {
                    "index" : 0,
                    "texCoord" : 0
                },
                "metallicFactor" : 0,
                "roughnessFactor" : 0.8090909123420715
            }
        }
    ],
    "meshes" : [
        {
            "name" : "Cube.000",
            "primitives" : [
                {
                    "attributes" : {
                        "POSITION" : 0,
                        "NORMAL" : 1,
                        "TEXCOORD_0" : 2
                    },
                    "indices" : 3,
                    "material" : 0
                }
            ]
        },
        {
            "name" : "Cylinder",
            "primitives" : [
                {
                    "attributes" : {
                        "POSITION" : 4,
                        "NORMAL" : 5,
                        "TEXCOORD_0" : 6
                    },
                    "indices" : 7,
                    "material" : 0
                }
            ]
        },
        {
            "name" : "Cylinder.001",
            "primitives" : [
                {
                    "attributes" : {
                        "POSITION" : 8,
                        "NORMAL" : 9,
                        "TEXCOORD_0" : 10,
                        "JOINTS_0" : 11,
                        "WEIGHTS_0" : 12
                    },
                    "indices" : 13,
                    "material" : 0
                }
            ]
        }
    ],
    "textures" : [
        {
            "source" : 0
        }
    ],
    "images" : [
        {
            "bufferView" : 4,
            "mimeType" : "image/jpeg",
            "name" : "Color"
        }
    ],
    "skins" : [
        {
            "inverseBindMatrices" : 14,
            "joints" : [
                5,
                4,
                3,
                2
            ],
            "name" : "Armature"
        }
    ],
    "accessors" : [
        {
            "bufferView" : 0,
            "componentType" : 5126,
            "count" : 278,
            "max" : [
                0.3930830955505371,
                0.39480680227279663,
                0.20201006531715393
            ],
            "min" : [
                -0.39497697353363037,
                -0.3932533264160156,
                0.10440485179424286
            ],
            "type" : "VEC3"
        },
        {
            "bufferView" : 1,
            "componentType" : 5126,
            "count" : 278,
            "type" : "VEC3"
        },
        {
            "bufferView" : 2,
            "componentType" : 5126,
            "count" : 278,
            "type" : "VEC2"
        },
        {
            "bufferView" : 3,
            "componentType" : 5123,
            "count" : 828,
            "type" : "SCALAR"
        },
        {
            "bufferView" : 5,
            "componentType" : 5126,
            "count" : 1173,
            "max" : [
                0.6928203105926514,
                0.8369305729866028,
                0.8000001311302185
            ],
            "min" : [
                -0.6928203105926514,
                5.960464477539063e-08,
                -0.800000011920929
            ],
            "type" : "VEC3"
        },
        {
            "bufferView" : 6,
            "componentType" : 5126,
            "count" : 1173,
            "type" : "VEC3"
        },
        {
            "bufferView" : 7,
            "componentType" : 5126,
            "count" : 1173,
            "type" : "VEC2"
        },
        {
            "bufferView" : 8,
            "componentType" : 5123,
            "count" : 3546,
            "type" : "SCALAR"
        },
        {
            "bufferView" : 9,
            "componentType" : 5126,
            "count" : 992,
            "max" : [
                0.4619137942790985,
                0.5492737293243408,
                -0.2106790691614151
            ],
            "min" : [
                0.22769662737846375,
                0.00037232786417007446,
                -0.44489631056785583
            ],
            "type" : "VEC3"
        },
        {
            "bufferView" : 10,
            "componentType" : 5126,
            "count" : 992,
            "type" : "VEC3"
        },
        {
            "bufferView" : 11,
            "componentType" : 5126,
            "count" : 992,
            "type" : "VEC2"
        },
        {
            "bufferView" : 12,
            "componentType" : 5123,
            "count" : 992,
            "type" : "VEC4"
        },
        {
            "bufferView" : 13,
            "componentType" : 5126,
            "count" : 992,
            "type" : "VEC4"
        },
        {
            "bufferView" : 14,
            "componentType" : 5123,
            "count" : 1440,
            "type" : "SCALAR"
        },
        {
            "bufferView" : 15,
            "componentType" : 5126,
            "count" : 4,
            "type" : "MAT4"
        },
        {
            "bufferView" : 16,
            "componentType" : 5126,
            "count" : 120,
            "max" : [
                2
            ],
            "min" : [
                0.016666666666666666
            ],
            "type" : "SCALAR"
        },
        {
            "bufferView" : 17,
            "componentType" : 5126,
            "count" : 120,
            "type" : "VEC4"
        },
        {
            "bufferView" : 18,
            "componentType" : 5126,
            "count" : 120,
            "type" : "VEC3"
        },
        {
            "bufferView" : 19,
            "componentType" : 5126,
            "count" : 120,
            "type" : "VEC4"
        },
        {
            "bufferView" : 20,
            "componentType" : 5126,
            "count" : 120,
            "type" : "VEC3"
        },
        {
            "bufferView" : 21,
            "componentType" : 5126,
            "count" : 120,
            "type" : "VEC3"
        },
        {
            "bufferView" : 22,
            "componentType" : 5126,
            "count" : 120,
            "type" : "VEC4"
        },
        {
            "bufferView" : 23,
            "componentType" : 5126,
            "count" : 120,
            "type" : "VEC3"
        },
        {
            "bufferView" : 24,
            "componentType" : 5126,
            "count" : 120,
            "type" : "VEC3"
        },
        {
            "bufferView" : 25,
            "componentType" : 5126,
            "count" : 120,
            "type" : "VEC4"
        },
        {
            "bufferView" : 26,
            "componentType" : 5126,
            "count" : 120,
            "type" : "VEC3"
        },
        {
            "bufferView" : 27,
            "componentType" : 5126,
            "count" : 120,
            "type" : "VEC3"
        },
        {
            "bufferView" : 28,
            "componentType" : 5126,
            "count" : 120,
            "type" : "VEC4"
        },
        {
            "bufferView" : 29,
            "componentType" : 5126,
            "count" : 120,
            "type" : "VEC3"
        }
    ],
    "bufferViews" : [
        {
            "buffer" : 0,
            "byteLength" : 3336,
            "byteOffset" : 0
        },
        {
            "buffer" : 0,
            "byteLength" : 3336,
            "byteOffset" : 3336
        },
        {
            "buffer" : 0,
            "byteLength" : 2224,
            "byteOffset" : 6672
        },
        {
            "buffer" : 0,
            "byteLength" : 1656,
            "byteOffset" : 8896
        },
        {
            "buffer" : 0,
            "byteLength" : 15286,
            "byteOffset" : 10552
        },
        {
            "buffer" : 0,
            "byteLength" : 14076,
            "byteOffset" : 25840
        },
        {
            "buffer" : 0,
            "byteLength" : 14076,
            "byteOffset" : 39916
        },
        {
            "buffer" : 0,
            "byteLength" : 9384,
            "byteOffset" : 53992
        },
        {
            "buffer" : 0,
            "byteLength" : 7092,
            "byteOffset" : 63376
        },
        {
            "buffer" : 0,
            "byteLength" : 11904,
            "byteOffset" : 70468
        },
        {
            "buffer" : 0,
            "byteLength" : 11904,
            "byteOffset" : 82372
        },
        {
            "buffer" : 0,
            "byteLength" : 7936,
            "byteOffset" : 94276
        },
        {
            "buffer" : 0,
            "byteLength" : 7936,
            "byteOffset" : 102212
        },
        {
            "buffer" : 0,
            "byteLength" : 15872,
            "byteOffset" : 110148
        },
        {
            "buffer" : 0,
            "byteLength" : 2880,
            "byteOffset" : 126020
        },
        {
            "buffer" : 0,
            "byteLength" : 256,
            "byteOffset" : 128900
        },
        {
            "buffer" : 0,
            "byteLength" : 480,
            "byteOffset" : 129156
        },
        {
            "buffer" : 0,
            "byteLength" : 1920,
            "byteOffset" : 129636
        },
        {
            "buffer" : 0,
            "byteLength" : 1440,
            "byteOffset" : 131556
        },
        {
            "buffer" : 0,
            "byteLength" : 1920,
            "byteOffset" : 132996
        },
        {
            "buffer" : 0,
            "byteLength" : 1440,
            "byteOffset" : 134916
        },
        {
            "buffer" : 0,
            "byteLength" : 1440,
            "byteOffset" : 136356
        },
        {
            "buffer" : 0,
            "byteLength" : 1920,
            "byteOffset" : 137796
        },
        {
            "buffer" : 0,
            "byteLength" : 1440,
            "byteOffset" : 139716
        },
        {
            "buffer" : 0,
            "byteLength" : 1440,
            "byteOffset" : 141156
        },
        {
            "buffer" : 0,
            "byteLength" : 1920,
            "byteOffset" : 142596
        },
        {
            "buffer" : 0,
            "byteLength" : 1440,
            "byteOffset" : 144516
        },
        {
            "buffer" : 0,
            "byteLength" : 1440,
            "byteOffset" : 145956
        },
        {
            "buffer" : 0,
            "byteLength" : 1920,
            "byteOffset" : 147396
        },
        {
            "buffer" : 0,
            "byteLength" : 1440,
            "byteOffset" : 149316
        }
    ],
    "buffers" : [
        {
            "byteLength" : 150756,
            "uri" : "data:application/octet-stream;base64,"
        }
    ]
}
